<?xml version="1.0" standalone="no"?>
<!DOCTYPE svg PUBLIC "-//W3C//DTD SVG 20010904//EN"
 "http://www.w3.org/TR/2001/REC-SVG-20010904/DTD/svg10.dtd">
<svg version="1.0" xmlns="http://www.w3.org/2000/svg"
 width="512.000000pt" height="512.000000pt" viewBox="0 0 512.000000 512.000000"
 preserveAspectRatio="xMidYMid meet">

<g transform="translate(0.000000,512.000000) scale(0.100000,-0.100000)"
fill="#000000" stroke="none">
<path d="M2638 4753 c-21 -2 -38 -8 -38 -12 0 -4 -25 -13 -55 -20 -30 -7 -55
-17 -55 -22 0 -5 -9 -9 -21 -9 -12 0 -23 -8 -26 -20 -3 -11 -12 -20 -19 -20
-10 0 -14 -15 -14 -55 0 -40 -4 -57 -15 -61 -27 -11 -16 -32 20 -38 19 -4 35
-13 35 -20 0 -8 16 -17 35 -20 19 -4 35 -13 35 -20 0 -8 15 -17 34 -20 19 -4
36 -13 39 -20 3 -7 22 -16 41 -20 20 -4 36 -11 36 -16 0 -5 27 -12 60 -16 37
-4 60 -11 60 -19 0 -34 437 -30 448 5 2 5 11 10 20 10 10 0 28 12 41 25 13 14
29 25 37 25 10 0 14 16 14 63 0 51 -3 64 -20 75 -11 7 -20 19 -20 27 0 8 -9
15 -20 15 -11 0 -28 9 -37 20 -10 11 -23 20 -31 20 -7 0 -15 7 -18 15 -3 8
-21 17 -40 21 -19 3 -34 12 -34 19 0 13 -43 25 -90 25 -16 0 -30 5 -32 10 -2
6 -32 16 -68 22 -36 7 -67 15 -70 20 -7 9 -180 18 -232 11z"/>
<path d="M1833 4488 c-13 -6 -23 -15 -23 -20 0 -4 -20 -8 -45 -8 -36 0 -50 -5
-67 -25 -12 -14 -27 -25 -34 -25 -6 0 -14 -7 -18 -15 -3 -8 -12 -15 -21 -15
-8 0 -15 -7 -15 -15 0 -8 -14 -17 -34 -20 -29 -6 -35 -12 -41 -41 -3 -19 -12
-34 -20 -34 -8 0 -16 -16 -20 -40 -4 -25 -12 -40 -21 -40 -8 0 -14 -7 -14 -15
0 -8 -9 -19 -20 -25 -16 -8 -19 -17 -14 -38 4 -15 13 -31 21 -35 7 -4 13 -21
13 -38 0 -17 6 -32 15 -35 8 -3 17 -21 21 -39 4 -21 13 -35 25 -38 10 -3 19
-12 19 -21 0 -12 10 -16 35 -16 28 0 35 -4 35 -19 0 -15 10 -19 52 -23 29 -3
54 -11 56 -17 5 -16 159 -15 164 1 3 7 32 14 70 16 55 3 67 8 71 23 4 15 14
19 46 19 34 0 41 3 41 19 0 14 10 21 35 25 19 4 35 11 35 16 0 6 16 10 35 10
24 0 35 -5 35 -15 0 -8 9 -15 20 -15 13 0 20 -7 20 -20 0 -17 7 -20 40 -20 33
0 40 -3 40 -20 0 -13 7 -20 20 -20 11 0 20 -7 20 -15 0 -8 9 -15 20 -15 11 0
20 5 20 11 0 6 -9 13 -20 16 -11 3 -20 14 -20 24 0 11 -7 19 -15 19 -8 0 -15
6 -15 14 0 9 -17 16 -45 20 -43 7 -45 9 -45 42 0 23 -5 34 -14 34 -8 0 -17 4
-21 10 -9 15 6 60 20 60 7 0 16 19 19 45 5 29 12 45 22 45 11 0 14 16 14 70 0
54 -3 70 -14 70 -17 0 -30 66 -24 121 l3 34 -78 3 c-62 2 -83 7 -100 22 -18
18 -35 20 -141 19 -67 0 -131 -5 -143 -11z"/>
<path d="M3620 4325 c0 -8 -6 -15 -14 -15 -17 0 -25 -48 -18 -107 3 -27 10
-43 18 -43 8 0 14 -9 14 -20 0 -10 9 -24 20 -30 11 -6 20 -17 20 -25 0 -8 5
-15 10 -15 6 0 25 -16 43 -35 24 -26 40 -35 64 -35 21 0 33 -5 33 -14 0 -7 14
-16 31 -20 69 -13 159 -2 159 20 0 7 7 17 17 22 12 7 16 23 15 58 0 27 -5 50
-11 52 -6 2 -13 19 -17 38 -3 19 -12 34 -20 34 -8 0 -14 9 -14 20 0 13 -7 20
-19 20 -10 0 -21 9 -24 20 -3 11 -12 20 -21 20 -9 0 -16 6 -16 14 0 8 -15 17
-35 20 -21 4 -35 13 -35 21 0 12 -19 15 -100 15 -82 0 -100 -3 -100 -15z"/>
<path d="M993 4153 c-13 -2 -23 -10 -23 -18 0 -7 -16 -16 -36 -19 -27 -6 -38
-14 -45 -36 -6 -16 -22 -33 -40 -40 -16 -7 -29 -19 -29 -26 0 -8 -9 -14 -20
-14 -13 0 -20 -7 -20 -20 0 -11 -11 -30 -25 -42 -14 -12 -25 -28 -25 -35 0 -7
-7 -13 -15 -13 -8 0 -15 -9 -15 -20 0 -13 -7 -20 -20 -20 -15 0 -20 -7 -20
-25 0 -14 -9 -33 -20 -42 -11 -10 -20 -25 -20 -35 0 -10 -7 -18 -15 -18 -10 0
-15 -10 -15 -31 0 -22 -5 -32 -20 -36 -17 -5 -20 -14 -20 -59 0 -38 -4 -55
-16 -62 -20 -11 -37 -151 -27 -236 4 -45 10 -60 24 -63 11 -3 19 -11 19 -19 0
-17 77 -28 135 -20 29 5 45 12 45 22 0 9 11 14 35 14 24 0 37 6 45 20 6 11 17
20 24 20 8 0 16 9 19 20 3 11 12 20 21 20 9 0 16 7 16 15 0 8 7 15 16 15 9 0
18 9 21 20 3 11 12 20 20 20 8 0 17 9 20 20 3 11 12 20 19 20 8 0 14 8 14 19
0 10 9 21 19 24 11 3 22 17 26 35 3 17 13 33 21 36 8 3 14 12 14 21 0 8 6 15
14 15 9 0 17 15 21 40 4 24 12 40 21 40 8 0 16 15 20 40 4 24 12 40 20 40 8 0
14 10 14 24 0 35 10 56 26 56 11 0 14 23 14 111 0 102 2 111 20 116 14 4 20
14 20 33 0 24 -5 29 -35 34 -19 4 -35 13 -35 20 0 8 -7 17 -16 20 -17 7 -156
6 -191 -1z"/>
<path d="M2908 3853 c-56 -3 -78 -8 -78 -17 0 -14 -42 -26 -91 -26 -19 0 -37
-9 -51 -25 -12 -14 -28 -25 -35 -25 -7 0 -13 -4 -13 -10 0 -16 -40 -12 -46 5
-4 8 -12 15 -20 15 -8 0 -14 9 -14 20 0 17 -7 20 -45 20 -32 0 -45 -4 -45 -14
0 -9 17 -16 45 -20 l45 -7 0 -55 c0 -47 -2 -54 -20 -54 -13 0 -20 -7 -20 -20
0 -11 -6 -20 -14 -20 -8 0 -18 -9 -21 -20 -3 -11 -13 -20 -20 -20 -8 0 -17
-15 -21 -35 -3 -19 -11 -35 -18 -35 -21 0 -44 -37 -55 -91 -7 -29 -17 -57 -24
-61 -15 -9 -22 -200 -12 -343 6 -90 9 -104 26 -108 11 -3 19 -14 19 -27 0 -22
1 -22 95 -15 120 9 235 -1 235 -21 0 -9 12 -14 36 -14 27 0 37 -5 41 -19 3
-11 13 -21 24 -24 10 -3 19 -12 19 -20 0 -8 7 -17 14 -20 8 -3 18 -22 22 -41
3 -21 12 -36 20 -36 10 0 14 -15 14 -55 0 -48 2 -55 20 -55 18 0 20 -7 20 -55
0 -48 -2 -55 -20 -55 -18 0 -20 -7 -20 -60 0 -50 3 -60 18 -60 12 0 14 -3 4
-8 -9 -6 -5 -12 15 -23 16 -8 33 -19 38 -25 25 -29 495 -27 495 2 0 7 18 15
40 19 25 4 40 12 40 21 0 8 9 14 19 14 30 0 51 11 51 26 0 8 10 14 23 14 28 0
39 8 56 43 8 15 18 27 23 27 4 0 18 11 30 25 12 14 30 25 40 25 14 0 18 8 18
35 0 28 4 35 20 35 13 0 20 7 20 20 0 11 7 23 15 26 8 3 17 21 21 40 3 19 12
34 19 34 9 0 15 25 19 83 9 104 15 137 27 137 15 0 11 171 -5 184 -9 7 -16 44
-20 104 -6 89 -6 94 14 99 11 3 20 11 20 18 0 8 21 14 57 18 32 3 59 11 61 17
5 15 29 12 36 -5 3 -8 15 -15 26 -15 13 0 20 -7 20 -20 0 -11 7 -20 15 -20 8
0 15 -9 15 -20 0 -13 7 -20 20 -20 13 0 20 -7 20 -19 0 -30 11 -51 26 -51 8 0
14 -9 14 -20 0 -13 7 -20 20 -20 11 0 20 -7 20 -15 0 -8 7 -15 15 -15 8 0 17
-11 21 -25 3 -14 12 -25 19 -25 7 0 15 -9 18 -20 4 -16 11 -18 43 -14 88 12
104 15 104 24 0 6 9 10 20 10 13 0 20 7 20 19 0 10 9 21 19 24 16 4 20 17 26
78 8 91 -8 209 -30 221 -9 6 -15 23 -15 48 0 28 -4 40 -15 40 -8 0 -17 14 -21
35 -3 19 -11 35 -18 35 -11 0 -19 12 -51 78 -8 17 -22 32 -30 32 -8 0 -15 7
-15 15 0 8 -6 15 -13 15 -7 0 -23 11 -35 25 -12 14 -30 25 -41 25 -10 0 -21 6
-24 14 -12 31 -157 31 -157 0 0 -8 -7 -14 -16 -14 -9 0 -18 -9 -21 -20 -3 -11
-12 -20 -19 -20 -11 0 -14 -24 -14 -115 0 -96 3 -115 15 -115 8 0 15 -7 15
-15 0 -8 -5 -15 -10 -15 -6 0 -15 -11 -20 -25 -6 -15 -17 -25 -30 -25 -11 0
-20 -6 -20 -14 0 -17 -31 -26 -91 -26 -35 0 -52 6 -70 24 -36 36 -48 53 -59
81 -5 14 -14 25 -20 25 -5 0 -10 7 -10 15 0 8 -4 15 -10 15 -5 0 -10 6 -10 14
0 8 -7 16 -15 20 -8 3 -15 12 -15 21 0 8 -7 15 -15 15 -8 0 -15 9 -15 20 0 13
-7 20 -20 20 -12 0 -20 7 -20 16 0 9 -9 18 -20 21 -11 3 -20 11 -20 17 0 7
-16 18 -35 26 -19 7 -36 19 -39 25 -2 7 -17 15 -33 18 -15 3 -41 19 -58 35
-24 24 -42 30 -94 36 -36 4 -70 14 -75 21 -12 15 -233 26 -378 18z"/>
<path d="M1712 3295 c-7 -9 -31 -15 -56 -15 -30 0 -48 -6 -61 -20 -10 -11 -26
-20 -37 -20 -10 0 -18 -7 -18 -16 0 -9 -9 -18 -20 -21 -15 -4 -20 -14 -20 -39
0 -23 -5 -34 -15 -34 -8 0 -17 -14 -21 -36 -4 -19 -13 -38 -20 -41 -16 -6 -19
-73 -4 -73 5 0 13 -18 16 -40 5 -30 11 -40 25 -40 15 0 19 -7 19 -34 0 -31 3
-34 35 -40 21 -4 35 -13 35 -21 0 -12 23 -15 131 -15 122 0 131 1 136 20 4 15
14 20 38 20 30 0 33 3 39 35 6 30 11 35 35 35 24 0 30 5 35 31 3 17 6 44 6 60
0 19 5 29 15 29 11 0 15 12 15 51 0 31 -6 56 -15 65 -8 9 -15 29 -15 45 0 19
-5 29 -15 29 -8 0 -15 7 -15 16 0 9 -9 18 -20 21 -11 3 -20 12 -20 19 0 10
-13 14 -40 14 -27 0 -43 5 -46 15 -8 20 -104 20 -122 0z"/>
<path d="M845 2973 c-11 -3 -24 -11 -28 -19 -4 -8 -22 -14 -38 -14 -22 0 -32
-6 -36 -20 -3 -11 -14 -20 -24 -20 -11 0 -19 -7 -19 -16 0 -9 -9 -18 -20 -21
-15 -4 -20 -14 -20 -39 0 -23 -5 -34 -15 -34 -8 0 -17 -15 -21 -37 -4 -21 -13
-44 -21 -51 -20 -20 -19 -262 2 -262 11 0 15 -16 17 -67 l3 -68 38 -9 c20 -5
37 -15 37 -23 0 -7 7 -13 16 -13 9 0 18 -9 21 -20 4 -16 14 -20 44 -20 28 0
39 -4 39 -15 0 -18 66 -22 72 -4 2 5 22 13 46 16 26 3 42 11 42 19 0 10 14 14
50 14 38 0 50 -4 50 -15 0 -8 8 -15 19 -15 10 0 21 -9 24 -20 3 -14 14 -20 31
-20 37 0 34 29 -3 36 -25 5 -31 12 -36 45 -4 22 -11 39 -16 39 -5 0 -9 7 -9
15 0 8 4 15 9 15 4 0 11 27 15 60 5 41 11 60 21 60 30 0 32 272 1 295 -7 6
-17 31 -21 55 -4 26 -16 51 -26 58 -11 7 -19 20 -19 28 0 8 -7 14 -15 14 -8 0
-15 7 -15 15 0 8 -14 17 -35 21 -19 3 -39 12 -43 20 -8 15 -84 26 -117 17z"/>
<path d="M4317 2783 c-4 -3 -7 -32 -7 -64 0 -66 -7 -89 -26 -89 -8 0 -14 -6
-14 -14 0 -8 -15 -17 -35 -20 -21 -4 -35 -13 -35 -21 0 -8 -9 -15 -20 -15 -12
0 -20 -7 -20 -16 0 -9 -9 -18 -20 -21 -11 -3 -20 -12 -20 -19 0 -8 -7 -17 -15
-20 -8 -3 -17 -22 -21 -41 -4 -19 -13 -37 -20 -40 -7 -3 -17 -27 -20 -55 -4
-27 -13 -52 -20 -55 -11 -4 -14 -35 -14 -139 0 -74 4 -134 9 -134 5 0 14 -22
21 -49 6 -27 18 -52 26 -55 8 -3 14 -19 14 -41 0 -28 4 -35 20 -35 11 0 20 -6
20 -13 0 -7 16 -19 35 -27 19 -8 35 -17 35 -22 0 -4 27 -8 60 -8 60 0 79 8
119 53 8 9 21 17 28 17 7 0 13 7 13 16 0 9 9 18 20 21 13 3 22 17 26 39 3 19
12 34 19 34 8 0 16 17 20 40 4 25 12 40 21 40 10 0 14 12 14 40 l0 40 43 0
c23 0 47 -4 53 -8 6 -4 15 -38 20 -76 9 -70 30 -99 41 -57 3 12 12 21 19 21 8
0 14 9 14 20 0 10 7 23 16 28 13 7 19 35 26 113 6 57 14 106 19 107 13 5 11
182 -1 182 -6 0 -15 11 -20 25 -11 30 -30 33 -37 6 -3 -11 -11 -22 -18 -25 -7
-2 -16 -20 -20 -38 -4 -18 -12 -36 -17 -39 -7 -4 -22 -109 -28 -186 0 -2 -22
-3 -49 -3 l-49 0 -7 130 c-6 94 -11 130 -20 130 -7 0 -16 16 -19 36 -4 19 -14
38 -22 41 -7 3 -14 14 -14 24 0 14 -7 19 -25 19 -15 0 -25 6 -25 14 0 8 -13
17 -29 21 -35 7 -41 25 -41 123 0 66 -6 83 -23 65z"/>
<path d="M550 2240 c0 -18 -7 -20 -80 -20 -62 0 -80 -3 -80 -14 0 -8 -6 -16
-14 -19 -7 -3 -16 -19 -19 -37 -4 -17 -14 -38 -23 -47 -13 -14 -15 -32 -12
-101 3 -46 9 -87 15 -90 6 -4 16 -45 21 -92 6 -46 15 -86 21 -88 6 -2 13 -19
17 -39 4 -19 12 -37 20 -40 7 -2 15 -22 19 -44 4 -23 12 -39 20 -39 8 0 17
-15 21 -35 3 -20 12 -35 20 -35 8 0 14 -8 14 -18 0 -10 9 -25 20 -35 11 -9 20
-26 20 -37 0 -13 7 -20 20 -20 11 0 20 -7 20 -15 0 -8 7 -15 15 -15 8 0 15 -4
15 -10 0 -5 9 -10 20 -10 11 0 20 -7 20 -15 0 -12 13 -15 60 -15 47 0 60 3 60
15 0 8 6 15 14 15 13 0 26 41 26 86 0 13 5 24 10 24 6 0 10 27 10 60 0 33 -4
60 -10 60 -6 0 -10 29 -10 68 -1 74 -13 142 -29 151 -5 4 -13 26 -17 49 -4 26
-12 42 -20 42 -8 0 -14 10 -14 24 0 14 -7 31 -15 40 -8 8 -18 29 -22 47 -3 19
-13 34 -25 36 -10 3 -18 14 -18 24 0 11 -6 19 -14 19 -7 0 -16 9 -19 20 -3 11
-12 20 -20 20 -12 0 -17 18 -22 75 -5 54 -11 75 -21 75 -8 0 -14 -9 -14 -20z"/>
<path d="M2180 2235 c0 -8 -7 -15 -15 -15 -7 0 -18 -6 -22 -13 -4 -8 -16 -16
-25 -20 -10 -3 -18 -13 -18 -22 0 -8 -6 -15 -14 -15 -8 0 -24 -11 -37 -25 -13
-13 -29 -25 -36 -25 -6 0 -15 -9 -18 -20 -3 -11 -12 -20 -20 -20 -8 0 -17 -9
-20 -20 -11 -34 -93 -22 -118 18 -4 6 -15 12 -22 12 -8 0 -15 6 -15 14 0 10
-16 17 -47 22 -27 4 -53 14 -59 22 -17 24 -250 24 -267 1 -18 -23 -62 -31
-134 -23 l-63 6 0 34 c0 23 -5 34 -14 34 -20 0 -25 -11 -19 -43 3 -15 12 -27
19 -27 8 0 14 -9 14 -20 0 -11 7 -23 15 -26 8 -4 15 -18 15 -34 0 -16 -7 -30
-15 -34 -8 -3 -15 -15 -15 -26 0 -11 -6 -20 -14 -20 -16 0 -26 -70 -26 -190 0
-116 10 -190 25 -190 7 0 16 -16 19 -35 4 -21 13 -35 21 -35 8 0 15 -7 15 -15
0 -8 9 -19 20 -25 11 -6 20 -17 20 -25 0 -8 7 -15 15 -15 9 0 18 -6 21 -14 3
-8 14 -16 25 -19 10 -3 19 -12 19 -21 0 -9 6 -16 13 -16 7 0 20 -9 29 -19 12
-14 36 -22 77 -27 42 -4 61 -11 61 -20 0 -11 22 -14 100 -14 79 0 100 3 100
14 0 9 18 16 55 21 38 4 55 11 55 21 0 8 7 14 16 14 9 0 18 9 21 19 3 12 17
23 34 26 23 5 30 13 35 42 4 19 12 37 20 40 7 2 18 29 25 59 7 30 16 54 21 54
14 0 10 137 -6 143 -7 3 -16 28 -19 58 -4 29 -12 56 -19 60 -19 12 -24 140 -6
153 8 6 17 19 21 29 3 9 13 17 22 17 8 0 15 7 15 15 0 8 8 15 19 15 13 0 21
10 25 34 4 22 14 37 26 41 11 4 20 13 20 21 0 8 7 14 15 14 8 0 15 9 15 20 0
11 7 20 15 20 8 0 15 7 15 15 0 8 -7 15 -15 15 -8 0 -15 -7 -15 -15z"/>
<path d="M2900 1855 c0 -8 -9 -15 -20 -15 -11 0 -20 -7 -20 -15 0 -8 -14 -17
-35 -21 -25 -4 -35 -11 -35 -25 0 -12 -7 -19 -20 -19 -11 0 -20 -7 -20 -15 0
-9 -7 -18 -15 -21 -8 -3 -17 -21 -21 -40 -3 -19 -12 -34 -20 -34 -11 0 -14
-18 -14 -75 0 -57 3 -75 14 -75 7 0 16 -14 19 -34 5 -34 45 -86 66 -86 6 0 11
-9 11 -20 0 -11 6 -20 14 -20 8 0 16 -6 19 -14 3 -8 29 -16 66 -20 34 -4 61
-11 61 -16 0 -13 57 -13 62 -1 4 13 122 28 181 23 39 -3 47 -7 47 -24 0 -11 8
-22 20 -25 11 -3 20 -12 20 -19 0 -8 9 -14 20 -14 16 0 20 -7 20 -32 0 -48
-10 -78 -26 -78 -19 0 -54 -40 -54 -62 0 -10 -7 -18 -16 -18 -9 0 -18 -9 -21
-20 -3 -11 -12 -20 -19 -20 -8 0 -14 -9 -14 -20 0 -11 -6 -20 -14 -20 -15 0
-26 -30 -26 -73 0 -15 -6 -30 -13 -33 -8 -3 -20 -20 -27 -39 -8 -19 -17 -35
-22 -35 -4 0 -8 -11 -8 -25 0 -14 4 -25 8 -25 5 0 15 -12 23 -27 8 -16 19 -32
26 -38 6 -5 13 -23 15 -40 2 -23 9 -31 36 -39 17 -5 32 -14 32 -21 0 -7 18
-15 39 -19 22 -3 41 -12 44 -18 6 -19 215 -17 227 2 5 7 32 15 64 18 36 3 56
9 56 17 0 14 31 25 73 25 17 0 27 5 27 15 0 9 9 15 21 15 12 0 23 8 26 20 4
15 14 20 38 20 24 0 34 5 38 19 3 11 17 22 35 26 18 3 32 14 35 26 3 10 12 19
21 19 9 0 16 7 16 15 0 8 9 15 20 15 13 0 20 7 20 20 0 10 8 27 18 37 11 10
22 26 25 35 4 10 13 18 22 18 8 0 15 9 15 20 0 11 6 20 14 20 13 0 26 41 26
86 0 14 6 24 14 24 16 0 24 68 18 143 -3 32 -9 47 -18 47 -8 0 -14 9 -14 20 0
13 -7 20 -19 20 -10 0 -21 9 -24 20 -3 11 -12 20 -21 20 -9 0 -16 6 -16 14 0
24 -144 33 -328 20 -66 -5 -92 -11 -92 -20 0 -7 -16 -16 -35 -20 -20 -3 -35
-12 -35 -20 0 -9 -12 -14 -36 -14 -27 0 -37 -5 -41 -20 -5 -17 -14 -20 -64
-20 -45 0 -59 3 -59 15 0 8 -14 17 -35 21 -25 4 -35 11 -35 25 0 11 -6 19 -14
19 -8 0 -17 11 -20 25 -4 14 -13 25 -21 25 -10 0 -15 10 -15 30 0 20 5 30 15
30 11 0 15 11 15 36 0 27 5 37 20 41 18 5 20 14 20 79 0 58 -3 74 -15 74 -8 0
-17 14 -21 35 -3 19 -12 35 -19 35 -7 0 -15 9 -18 20 -3 11 -12 20 -21 20 -9
0 -16 8 -16 20 0 12 -7 20 -18 20 -10 0 -25 9 -35 20 -9 11 -26 20 -37 20 -11
0 -20 7 -20 15 0 12 -16 15 -80 15 -64 0 -80 -3 -80 -15z"/>
<path d="M4497 1666 c-3 -8 -19 -17 -36 -21 -23 -5 -33 -15 -43 -41 -6 -19
-17 -34 -24 -34 -6 0 -15 -15 -18 -34 -4 -19 -11 -36 -17 -38 -13 -4 -23 -107
-15 -152 6 -32 10 -36 36 -36 20 0 30 5 30 15 0 8 11 17 25 21 16 4 25 13 25
25 0 10 7 19 15 19 8 0 15 7 15 16 0 9 9 18 20 21 13 3 20 14 20 28 0 44 13
85 26 85 10 0 14 15 14 55 0 42 -3 55 -15 55 -8 0 -15 7 -15 15 0 19 -36 20
-43 1z"/>
<path d="M1185 1046 c-5 -2 -22 -7 -37 -10 -16 -4 -28 -12 -28 -20 0 -7 -9
-23 -20 -36 -14 -17 -20 -37 -20 -74 0 -39 5 -56 20 -69 11 -9 20 -26 20 -37
0 -12 9 -30 20 -42 11 -12 20 -28 20 -35 0 -7 7 -13 16 -13 9 0 18 -9 21 -20
3 -13 17 -22 39 -26 19 -3 34 -12 34 -20 0 -7 16 -16 35 -20 19 -3 35 -12 35
-19 0 -8 22 -15 61 -19 123 -12 209 -4 209 20 0 8 9 14 20 14 13 0 20 7 20 20
0 11 7 20 15 20 20 0 21 105 1 125 -7 8 -16 31 -20 53 -3 22 -13 42 -21 46 -8
3 -15 12 -15 20 0 9 -14 18 -35 22 -21 4 -35 12 -35 21 0 8 -9 17 -20 20 -11
3 -20 12 -20 19 0 8 -10 14 -25 14 -13 0 -33 9 -43 21 -17 17 -35 21 -128 25
-60 2 -113 2 -119 0z"/>
<path d="M2278 796 c-8 -7 -33 -17 -56 -21 -23 -4 -42 -11 -42 -15 0 -5 -25
-14 -55 -21 -33 -7 -55 -17 -55 -26 0 -7 -9 -13 -21 -13 -12 0 -23 -8 -26 -20
-3 -11 -12 -20 -19 -20 -8 0 -14 -9 -14 -20 0 -13 -7 -20 -20 -20 -18 0 -20
-7 -20 -70 0 -59 3 -71 20 -80 11 -6 20 -16 20 -23 0 -14 43 -57 58 -57 5 0
12 -6 15 -14 3 -7 22 -16 41 -20 22 -4 36 -13 36 -21 0 -11 12 -15 40 -15 22
0 40 -4 40 -9 0 -35 353 -41 372 -7 6 10 22 16 44 16 21 0 37 6 40 15 3 8 22
17 41 21 19 4 37 13 40 20 3 8 10 14 15 14 15 0 58 49 58 66 0 7 7 14 15 14
12 0 15 19 15 109 l0 109 -42 7 c-82 12 -96 16 -102 31 -3 8 -19 14 -40 14
-19 0 -39 6 -43 14 -4 7 -28 16 -52 19 -25 3 -48 12 -53 21 -12 22 -229 23
-250 2z"/>
</g>
</svg>
