<svg xmlns="http://www.w3.org/2000/svg" width="88" height="23.597" viewBox="0 0 88 23.597">
  <g id="Logo_-_top_nav" data-name="Logo - top nav" transform="translate(-184.309 -498)">
    <g id="Group_22" data-name="Group 22" transform="translate(210.986 501.981)">
      <path id="Path_26" data-name="Path 26" d="M276.8,518.119h-4.206l-.8,1.941H269.64l4.038-9.06h2.071l4.051,9.06h-2.2Zm-.66-1.592-1.437-3.469-1.437,3.469Z" transform="translate(-269.64 -510.845)" fill="#fff"/>
      <path id="Path_27" data-name="Path 27" d="M306.063,520.06l-2.187-3.145-2.148,3.145H299.32l3.352-4.608L299.488,511h2.381l2.084,2.938L306,511h2.265l-3.158,4.375,3.378,4.685Z" transform="translate(-289.716 -510.845)" fill="#fff"/>
      <path id="Path_28" data-name="Path 28" d="M330.733,519.282a4.51,4.51,0,0,1-1.773-1.676,4.819,4.819,0,0,1,0-4.8,4.512,4.512,0,0,1,1.773-1.676,5.608,5.608,0,0,1,5.08,0,4.621,4.621,0,0,1,0,8.154,5.607,5.607,0,0,1-5.08,0Zm3.993-1.547a2.648,2.648,0,0,0,1.016-1.029,3.243,3.243,0,0,0,0-3,2.647,2.647,0,0,0-1.016-1.029,3.032,3.032,0,0,0-2.9,0,2.644,2.644,0,0,0-1.016,1.029,3.24,3.24,0,0,0,0,3,2.645,2.645,0,0,0,1.016,1.029,3.033,3.033,0,0,0,2.9,0Z" transform="translate(-309.333 -510.52)" fill="#fff"/>
      <path id="Path_29" data-name="Path 29" d="M372.149,511v9.06h-1.722l-4.517-5.5v5.5H363.84V511h1.734l4.5,5.5V511Z" transform="translate(-333.359 -510.845)" fill="#fff"/>
      <path id="Path_30" data-name="Path 30" d="M396.16,511h2.1v9.06h-2.1Z" transform="translate(-355.222 -510.845)" fill="#fff"/>
      <path id="Path_31" data-name="Path 31" d="M411.376,512.683v2.394h4.193v1.683h-4.193v3.3h-2.1V511h6.847v1.683Z" transform="translate(-364.096 -510.845)" fill="#fff"/>
      <path id="Path_32" data-name="Path 32" d="M436.563,516.85v3.21h-2.1v-3.236L430.959,511h2.226l2.42,4.025L438.026,511h2.058Z" transform="translate(-378.761 -510.845)" fill="#fff"/>
    </g>
    <g id="Group_24" data-name="Group 24" transform="translate(184.309 498)">
      <path id="Path_44" data-name="Path 44" d="M184.309,540.247c.056-.136.1-.276.171-.406a.43.43,0,0,1,.23-.228c.111-.043.115.05.135.112a2.647,2.647,0,0,1,.067.349,11.473,11.473,0,0,0,1.669,4.205c.047.073.128.142.072.248a.748.748,0,0,1-.765-.221,1.131,1.131,0,0,0-.121-.249,11.779,11.779,0,0,1-1.327-3.379,1.108,1.108,0,0,0-.132-.391Z" transform="translate(-184.309 -526.319)" fill="#fff"/>
      <path id="Path_45" data-name="Path 45" d="M184.309,541.72c.145.046.135.183.158.291a12.143,12.143,0,0,0,1.1,3.01c.087.169.2.327.281.5.032.064.137.128.044.221a1.816,1.816,0,0,1-.549-.579,5.735,5.735,0,0,1-.955-2.254c-.016-.079,0-.171-.075-.232Z" transform="translate(-184.309 -527.752)" fill="#fff"/>
      <path id="Path_46" data-name="Path 46" d="M220.54,498.162c.142-.1.334-.06.476-.162h1.232a3.775,3.775,0,0,0,.643.138,4.272,4.272,0,0,1,1.422.582c-.067.13-.173.059-.256.037a13.8,13.8,0,0,0-1.376-.3,14.807,14.807,0,0,0-1.856-.161C220.717,498.291,220.574,498.336,220.54,498.162Z" transform="translate(-208.817 -498)" fill="#fff"/>
      <path id="Path_47" data-name="Path 47" d="M216.658,524.235a1.826,1.826,0,0,1,0-.72.338.338,0,0,0,.269,0,3.781,3.781,0,0,1,3.657.722,3.549,3.549,0,0,1,1.3,2.688,3.65,3.65,0,0,1-.236,1.5.668.668,0,0,1-.138.261l-.32-.006c-.066-.029-.141.007-.206-.028l-.07-.006c-.056-.084,0-.152.034-.221a3.061,3.061,0,0,0-.563-3.5,3.028,3.028,0,0,0-2.159-.956,3.217,3.217,0,0,0-1.356.246C216.8,524.242,216.732,524.288,216.658,524.235Z" transform="translate(-206.165 -515.246)" fill="#fff"/>
      <path id="Path_48" data-name="Path 48" d="M216.738,525.449a4.667,4.667,0,0,1,1-.29,3.151,3.151,0,0,1,2.054.394,3.117,3.117,0,0,1,1.528,2.107,3.038,3.038,0,0,1-.232,1.961c-.036.077-.067.157-.1.236a1.782,1.782,0,0,1-.56-.107c-.049-.079,0-.14.038-.2a2.59,2.59,0,0,0-2.978-3.742,2.482,2.482,0,0,0-.465.172c-.062.031-.127.079-.2.026A1.518,1.518,0,0,1,216.738,525.449Z" transform="translate(-206.245 -516.464)" fill="#fff"/>
      <path id="Path_49" data-name="Path 49" d="M217.793,518.5a1.283,1.283,0,0,1,.252-.473,5.543,5.543,0,0,1,4.394,1.226,5.379,5.379,0,0,1,1.941,3.443,5.686,5.686,0,0,1-.052,1.851,1.292,1.292,0,0,1-.431.2c-.1-.069-.1-.07-.069-.233a4.423,4.423,0,0,0,.122-1.122,4.928,4.928,0,0,0-2.681-4.348,4.66,4.66,0,0,0-2.128-.573,5.657,5.657,0,0,0-1.105.061C217.952,518.546,217.865,518.576,217.793,518.5Z" transform="translate(-206.958 -511.604)" fill="#fff"/>
      <path id="Path_50" data-name="Path 50" d="M220.658,514.429l-.229-.19c.159-.107.344-.023.512-.069.081.007.131-.06.2-.08a1.9,1.9,0,0,1,.647.055,6.864,6.864,0,0,1,3.7,1.888,6.719,6.719,0,0,1,1.984,4.073,2.627,2.627,0,0,1,.022.533,1.757,1.757,0,0,1-.333.435c-.15.022-.112-.1-.115-.168-.008-.224-.017-.448-.039-.672a6.17,6.17,0,0,0-1.59-3.6,6.245,6.245,0,0,0-3.8-2.038,4.5,4.5,0,0,0-.769-.067C220.78,514.529,220.67,514.564,220.658,514.429Z" transform="translate(-208.742 -508.953)" fill="#fff"/>
      <path id="Path_51" data-name="Path 51" d="M220.367,515.162c.046.069.117.048.181.049a6.415,6.415,0,0,1,6.085,4.868,5.678,5.678,0,0,1,.179,1.524c0,.069-.048.165.064.2a1.651,1.651,0,0,1-.372.365c-.131.006-.128-.086-.121-.173a5.8,5.8,0,0,0-.589-3.042,5.867,5.867,0,0,0-2.486-2.6,6.2,6.2,0,0,0-2.334-.727c-.237-.026-.476,0-.714-.012-.1,0-.2.016-.26-.1A1.751,1.751,0,0,1,220.367,515.162Z" transform="translate(-208.451 -509.691)" fill="#fff"/>
      <path id="Path_52" data-name="Path 52" d="M217.473,519.418c.3,0,.6-.075.9-.085a5.343,5.343,0,0,1,1.269.1,5.016,5.016,0,0,1,2.777,1.612,4.919,4.919,0,0,1,1.188,2.5,4.778,4.778,0,0,1-.068,1.957c-.015.06-.03.117.033.159a1.206,1.206,0,0,1-.447.153c-.058-.067-.025-.137-.007-.207a4.677,4.677,0,0,0-3.857-5.855,4.658,4.658,0,0,0-1.695.055.343.343,0,0,1-.251.006A1.219,1.219,0,0,1,217.473,519.418Z" transform="translate(-206.639 -512.528)" fill="#fff"/>
      <path id="Path_53" data-name="Path 53" d="M216.989,527.108a4.74,4.74,0,0,1,.818-.293,2.627,2.627,0,0,1,2.228.54,2.456,2.456,0,0,1,.947,1.617,2.541,2.541,0,0,1-.329,1.757.259.259,0,0,0-.055.125,1.376,1.376,0,0,1-.435-.133c-.125-.081-.035-.164,0-.238a2.392,2.392,0,0,0,.3-1.159,2.1,2.1,0,0,0-2.026-2.006,2.182,2.182,0,0,0-1.092.24c-.073.039-.151.093-.24.027A1.727,1.727,0,0,1,216.989,527.108Z" transform="translate(-206.415 -517.57)" fill="#fff"/>
      <path id="Path_54" data-name="Path 54" d="M217.16,520.492a4.785,4.785,0,0,1,2.441-.016,4.677,4.677,0,0,1,2.359,1.413,4.592,4.592,0,0,1,1.169,2.422,5.02,5.02,0,0,1-.159,2.181.752.752,0,0,1-.358.075c-.071-.079-.031-.163-.006-.243a4.178,4.178,0,0,0-.177-3.021,4.254,4.254,0,0,0-2.837-2.435,4.169,4.169,0,0,0-2.2-.04c-.214.053-.235.045-.312-.066A.456.456,0,0,1,217.16,520.492Z" transform="translate(-206.478 -513.204)" fill="#fff"/>
      <path id="Path_55" data-name="Path 55" d="M219.437,516.278a.69.69,0,0,0,.388.045,6.04,6.04,0,0,1,5.892,4.569,4.807,4.807,0,0,1,.142,1.9.119.119,0,0,0,.082.139c-.094.128-.262.157-.362.276-.157-.04-.1-.167-.09-.256a5.724,5.724,0,0,0-.16-2.123,5.679,5.679,0,0,0-4.757-4.108,3.6,3.6,0,0,0-1.145-.032c-.094.017-.2.03-.26-.085A1.129,1.129,0,0,1,219.437,516.278Z" transform="translate(-207.889 -510.451)" fill="#fff"/>
      <path id="Path_56" data-name="Path 56" d="M228.337,512.26a3.332,3.332,0,0,1,1.078.11,12.33,12.33,0,0,1,1.415.9,8.024,8.024,0,0,1,2.18,2.61c.062.118.084.266.217.341a3.65,3.65,0,0,1,.069,1.356c-.026.036.015.107-.047.118s-.089-.048-.109-.1c-.074-.177-.115-.366-.182-.546a7.55,7.55,0,0,0-1.837-2.843,7.687,7.687,0,0,0-2.715-1.679c-.087-.032-.178-.054-.261-.093-.062-.03-.144-.05-.126-.15h0C228.121,512.246,228.233,512.3,228.337,512.26Z" transform="translate(-213.873 -507.706)" fill="#fff"/>
      <path id="Path_57" data-name="Path 57" d="M221.573,527.979a8.914,8.914,0,0,0,.286-1.024,3.769,3.769,0,0,0-.274-2.088,3.583,3.583,0,0,0-2.631-2.1,3.72,3.72,0,0,0-2.028.122c-.075.026-.2.126-.2-.075a.809.809,0,0,1,.041-.356.388.388,0,0,0,.307-.01,4.014,4.014,0,0,1,3.3.487,3.963,3.963,0,0,1,1.9,3.038,3.869,3.869,0,0,1-.2,1.7c-.033.1-.065.19.024.274A1.563,1.563,0,0,1,221.573,527.979Z" transform="translate(-206.234 -514.539)" fill="#fff"/>
      <path id="Path_58" data-name="Path 58" d="M218.765,517.273a.311.311,0,0,0,.21.041,4.638,4.638,0,0,1,1.722.118,5.488,5.488,0,0,1,2.411,1.175,5.714,5.714,0,0,1,1.5,1.892,5.343,5.343,0,0,1,.523,1.814,5.823,5.823,0,0,1,0,1.321c-.01.079-.038.173.043.242a.98.98,0,0,1-.321.2c-.115-.131-.013-.273.006-.4a4.819,4.819,0,0,0-.15-2.1,5.373,5.373,0,0,0-3.976-3.859,5.584,5.584,0,0,0-1.685-.16c-.16.006-.319.094-.478,0A.7.7,0,0,1,218.765,517.273Z" transform="translate(-207.485 -511.128)" fill="#fff"/>
      <path id="Path_59" data-name="Path 59" d="M236.989,556.766a1.462,1.462,0,0,1-.11.876,9.182,9.182,0,0,0-.717.652,11.309,11.309,0,0,1-2.22,1.521,10.39,10.39,0,0,1-1.038.494,1.811,1.811,0,0,1-.954-.175c-.03-.152.1-.146.183-.174a12.165,12.165,0,0,0,1.332-.568,11.194,11.194,0,0,0,3.124-2.35c.069-.072.118-.161.193-.226C236.842,556.766,236.9,556.7,236.989,556.766Z" transform="translate(-216.533 -537.982)" fill="#fff"/>
      <path id="Path_60" data-name="Path 60" d="M224.094,512.951a1.9,1.9,0,0,1,.556-.2,2.1,2.1,0,0,0,.416.125,7.358,7.358,0,0,1,5.351,5.758.21.21,0,0,0,.034.112,1.611,1.611,0,0,1-.2.518c-.124.11-.13-.028-.146-.082a3.053,3.053,0,0,1-.055-.332,6.768,6.768,0,0,0-1.59-3.406,7,7,0,0,0-4.153-2.336C224.217,513.1,224.069,513.126,224.094,512.951Z" transform="translate(-211.219 -508.049)" fill="#fff"/>
      <path id="Path_61" data-name="Path 61" d="M231.62,518.484c-.093-.044-.1-.14-.114-.219A7.054,7.054,0,0,0,229.938,515a7.306,7.306,0,0,0-3.305-2.226c-.211-.072-.432-.116-.649-.171-.071-.018-.147-.023-.164-.115a2.175,2.175,0,0,1,.713-.127c.039.081.117.1.193.125a7.6,7.6,0,0,1,3.293,2.116,7.35,7.35,0,0,1,1.332,2.09c.145.345.263.7.384,1.084l.076-.125A2.545,2.545,0,0,1,231.62,518.484Z" transform="translate(-212.388 -507.78)" fill="#fff"/>
      <path id="Path_62" data-name="Path 62" d="M235.987,555.744c-.111-.014-.168.069-.226.138A10.915,10.915,0,0,1,231.1,559c-.061.021-.133.029-.147.112a1.041,1.041,0,0,1-.484-.386,8.508,8.508,0,0,1,.814-.3,10.718,10.718,0,0,0,3.207-1.934,9.716,9.716,0,0,0,1.145-1.177.2.2,0,0,1,.127-.089A.9.9,0,0,1,235.987,555.744Z" transform="translate(-215.53 -536.96)" fill="#fff"/>
      <path id="Path_63" data-name="Path 63" d="M217.371,528.612a.33.33,0,0,0,.186-.058,2.165,2.165,0,0,1,2.357.15,2.043,2.043,0,0,1,.826,1.309,2.2,2.2,0,0,1-.291,1.558c-.032.059-.082.106-.028.175a2.113,2.113,0,0,1-.521-.22c-.053-.1.019-.164.063-.233a1.545,1.545,0,0,0-.073-1.847,1.623,1.623,0,0,0-1.94-.477.9.9,0,0,1-.378.155A2.318,2.318,0,0,1,217.371,528.612Z" transform="translate(-206.673 -518.599)" fill="#fff"/>
      <path id="Path_64" data-name="Path 64" d="M187.491,544.386c-.169-.289-.34-.577-.5-.868a11.225,11.225,0,0,1-1.2-3.161c-.055-.256-.1-.514-.153-.771-.01-.052-.008-.109-.082-.114a.5.5,0,0,1,.593.044,3.039,3.039,0,0,1,.187.784,10.833,10.833,0,0,0,1.48,3.52.4.4,0,0,1,.052.106A.6.6,0,0,1,187.491,544.386Z" transform="translate(-185.146 -526.177)" fill="#fff"/>
      <path id="Path_65" data-name="Path 65" d="M223.108,513.364c.023.1.118.1.189.111a7,7,0,0,1,5.557,4.705,6.591,6.591,0,0,1,.3,1.367c.006.058-.017.165.11.132a1.487,1.487,0,0,1-.269.477,1.431,1.431,0,0,1-.074-.538,6.716,6.716,0,0,0-1.464-3.484,6.884,6.884,0,0,0-4.729-2.5.419.419,0,0,1-.091-.03A1.736,1.736,0,0,1,223.108,513.364Z" transform="translate(-210.232 -508.466)" fill="#fff"/>
      <path id="Path_66" data-name="Path 66" d="M216.858,557.272a.388.388,0,0,0,.416,0c.23-.1.466-.18.7-.268a5.316,5.316,0,0,0,1.081-.3,9.228,9.228,0,0,0,2.8-1.566,12.053,12.053,0,0,0,1.28-1.237.383.383,0,0,1,.156-.117.659.659,0,0,1,.239.082c.047.128-.061.193-.122.268a9.1,9.1,0,0,1-1.367,1.316,9.789,9.789,0,0,1-3.242,1.708c-.084.026-.179.11-.265,0,0-.1-.034-.129-.14-.086-.351.141-.708.269-1.062.4a8.137,8.137,0,0,1-1.791.136,9.526,9.526,0,0,1-2.158-.289c-.094-.026-.222-.021-.227-.172a.567.567,0,0,1,.2-.1c.426.087.852.174,1.286.224A10.459,10.459,0,0,0,216.858,557.272Z" transform="translate(-203.825 -535.983)" fill="#fff"/>
      <path id="Path_67" data-name="Path 67" d="M217.993,530.155a1.684,1.684,0,0,1,2.2.1,1.591,1.591,0,0,1,.26,2.06c-.047.078-.12.142-.131.24a2.274,2.274,0,0,1-.51-.3c-.02-.084.039-.137.081-.193a1.045,1.045,0,0,0-.479-1.589,1.02,1.02,0,0,0-.912.075c-.076.044-.145.123-.25.086A1.993,1.993,0,0,1,217.993,530.155Z" transform="translate(-207.094 -519.63)" fill="#fff"/>
      <path id="Path_68" data-name="Path 68" d="M218.358,500.054a.455.455,0,0,1,.083-.51.655.655,0,0,1,.176-.026,12.046,12.046,0,0,1,4.209.548,6.077,6.077,0,0,1,.595.221.571.571,0,0,1,.1.483c-.082.131-.188.059-.28.024a11.659,11.659,0,0,0-2.316-.606,13,13,0,0,0-2.371-.111C218.484,500.079,218.417,500.1,218.358,500.054Z" transform="translate(-207.311 -499.021)" fill="#fff"/>
      <path id="Path_69" data-name="Path 69" d="M215.858,567.811a1.244,1.244,0,0,1-.554.521,10.828,10.828,0,0,1-4.015-.355.783.783,0,0,1-.242-.466c-.038-.122.047-.133.129-.137a.807.807,0,0,1,.252.046,11.431,11.431,0,0,0,3.51.371c.223-.009.447-.036.67-.059C215.7,567.722,215.807,567.683,215.858,567.811Z" transform="translate(-202.389 -545.177)" fill="#fff"/>
      <path id="Path_70" data-name="Path 70" d="M189.1,543.087c-.169-.092-.226-.272-.313-.422a10.626,10.626,0,0,1-1.372-3.736,1.089,1.089,0,0,1-.034-.252c.115.055.164.006.2-.107a1.451,1.451,0,0,1,.159-.416c.133,0,.111.12.145.2a.17.17,0,0,1-.01.037.553.553,0,0,0,.118.795,9.084,9.084,0,0,0,.691,2.167,8.706,8.706,0,0,0,.481.925.1.1,0,0,1,.014-.156A1.893,1.893,0,0,1,189.1,543.087Z" transform="translate(-186.383 -525.333)" fill="#fff"/>
      <path id="Path_71" data-name="Path 71" d="M235.448,554.746a10.1,10.1,0,0,1-3.089,2.6,11.21,11.21,0,0,1-1.934.844.65.65,0,0,1-.269.056.559.559,0,0,1-.148-.28.329.329,0,0,1,.2-.111,10.271,10.271,0,0,0,3.645-2,10.6,10.6,0,0,0,1.151-1.148c.059-.069.1-.156.2-.188A.622.622,0,0,1,235.448,554.746Z" transform="translate(-215.221 -536.479)" fill="#fff"/>
      <path id="Path_72" data-name="Path 72" d="M201.9,547.264a1.448,1.448,0,0,1-.556.127,8.05,8.05,0,0,1-2.505-2.637c-.141-.239-.269-.485-.39-.735a1.319,1.319,0,0,1,.206-.477c.137-.048.152.075.19.146.125.233.219.48.354.71a7.6,7.6,0,0,0,2.525,2.644C201.8,547.091,201.931,547.12,201.9,547.264Z" transform="translate(-193.874 -528.983)" fill="#fff"/>
      <path id="Path_73" data-name="Path 73" d="M249.18,517.836a.516.516,0,0,1-.44.112,1.094,1.094,0,0,1-.134-.39,10.453,10.453,0,0,0-1.724-3.276c-.045-.059-.126-.106-.1-.2a.488.488,0,0,1,.365-.219.471.471,0,0,1,.2.159,11.1,11.1,0,0,1,1.818,3.566A.3.3,0,0,1,249.18,517.836Z" transform="translate(-226.566 -508.794)" fill="#fff"/>
      <path id="Path_74" data-name="Path 74" d="M249.956,517.8a10.664,10.664,0,0,0-2.028-3.975,1.057,1.057,0,0,1,.844.227,2.615,2.615,0,0,0,.332.559,12.27,12.27,0,0,1,1.152,2.437.327.327,0,0,0,.047.108A.824.824,0,0,1,249.956,517.8Z" transform="translate(-227.343 -508.758)" fill="#fff"/>
      <path id="Path_75" data-name="Path 75" d="M236.152,516.462c-.066.059-.069.06-.111-.019-.112-.209-.215-.424-.335-.629a7.765,7.765,0,0,0-3.142-3.01c-.152-.08-.181-.1-.223-.2a4.136,4.136,0,0,1,1.533.6,4.823,4.823,0,0,1,1.807,1.921c.1.184.184.281.389.18a.248.248,0,0,1,.161.319.876.876,0,0,1-.126.05c-.115.028-.139.084-.1.2A2.005,2.005,0,0,1,236.152,516.462Z" transform="translate(-216.798 -507.941)" fill="#fff"/>
      <path id="Path_76" data-name="Path 76" d="M233.359,553.6a9.616,9.616,0,0,1-3.182,2.532,8.4,8.4,0,0,1-1.95.7.211.211,0,0,1-.189-.012,1.716,1.716,0,0,1,.285-.119.382.382,0,0,0,.347-.329.454.454,0,0,1,.224-.12,9.342,9.342,0,0,0,3.124-1.8,10.738,10.738,0,0,0,.891-.882.978.978,0,0,1-.4.024.113.113,0,0,1-.075-.047A1.988,1.988,0,0,1,233.359,553.6Z" transform="translate(-213.888 -535.804)" fill="#fff"/>
      <path id="Path_77" data-name="Path 77" d="M216.973,521.439c.071.079.157.05.239.028a4.232,4.232,0,0,1,1.172-.141,4.441,4.441,0,0,1,2.579.873,4.282,4.282,0,0,1,1.632,2.382,4.193,4.193,0,0,1-.043,2.412.564.564,0,0,0-.05.25.32.32,0,0,1-.238.043c-.059-.087-.006-.167.019-.245a4.073,4.073,0,0,0-.12-2.946,4.128,4.128,0,0,0-.864-1.268,4.039,4.039,0,0,0-2.512-1.227,4.259,4.259,0,0,0-1.517.1,1.945,1.945,0,0,1-.213.048c-.115.015-.168-.024-.121-.145A.212.212,0,0,1,216.973,521.439Z" transform="translate(-206.367 -513.883)" fill="#fff"/>
      <path id="Path_78" data-name="Path 78" d="M235.055,554.19a2.068,2.068,0,0,1-.343.431,10.315,10.315,0,0,1-2.616,2.088,9.68,9.68,0,0,1-2.241.93.664.664,0,0,1-.073-.316,2.625,2.625,0,0,0,.788-.226,9.589,9.589,0,0,0,2.726-1.544,8.68,8.68,0,0,0,1.455-1.446.27.27,0,0,0,.028-.072A.7.7,0,0,1,235.055,554.19Z" transform="translate(-215.068 -536.153)" fill="#fff"/>
      <path id="Path_79" data-name="Path 79" d="M199.833,561.289a.632.632,0,0,1-.434.365,8.677,8.677,0,0,1-1.521-.885,7.516,7.516,0,0,1-1.006-.8c-.123-.121-.169-.052-.216.057a.72.72,0,0,1,.236-.759c.08-.025.121.036.168.079a11.267,11.267,0,0,0,2.58,1.781C199.713,561.161,199.827,561.166,199.833,561.289Z" transform="translate(-192.643 -539.687)" fill="#fff"/>
      <path id="Path_80" data-name="Path 80" d="M201.307,541.081a.472.472,0,0,1,.239-.117c.146-.043.142.091.17.161a7.392,7.392,0,0,0,.555,1.14,6.265,6.265,0,0,0,2.369,2.26c.074.04.188.054.17.184a.7.7,0,0,1-.2.269,4.787,4.787,0,0,1-1.343-.868,6.831,6.831,0,0,1-1.715-2.238c-.091-.192-.163-.391-.242-.587C201.28,541.221,201.249,541.149,201.307,541.081Z" transform="translate(-195.785 -527.232)" fill="#fff"/>
      <path id="Path_81" data-name="Path 81" d="M216.888,522.016c-.012.138.07.107.15.085a4.791,4.791,0,0,1,1.308-.163,4.035,4.035,0,0,1,2.384.776,4.179,4.179,0,0,1,1.571,4.7c-.031.094-.058.189-.087.283l-.018.006-.018,0c-.149.018-.166-.049-.116-.171a3.48,3.48,0,0,0,.265-1.467,3.958,3.958,0,0,0-1.118-2.691,4.088,4.088,0,0,0-4.174-1.078c-.081.024-.189.1-.186-.08A.3.3,0,0,1,216.888,522.016Z" transform="translate(-206.319 -514.299)" fill="#fff"/>
      <path id="Path_82" data-name="Path 82" d="M215.8,567.029c-.2-.1-.405,0-.6.017-.384.037-.766.021-1.148.026a10.834,10.834,0,0,1-2.844-.409c-.086-.022-.184-.08-.22.067a.584.584,0,0,1,.039-.493.352.352,0,0,1,.251.017,11.085,11.085,0,0,0,2.6.412,12.061,12.061,0,0,0,1.8-.08.446.446,0,0,1,.254.01A.618.618,0,0,1,215.8,567.029Z" transform="translate(-202.33 -544.395)" fill="#fff"/>
      <path id="Path_83" data-name="Path 83" d="M223.464,549.536a.928.928,0,0,1-.241-.431c-.038-.15.075-.157.17-.173a6.245,6.245,0,0,0,.845-.2,5.716,5.716,0,0,0,1.725-.9c.074-.056.136-.151.254-.123a.96.96,0,0,1,.184.523,2.862,2.862,0,0,1-.765.552,6.243,6.243,0,0,1-2.094.753A.257.257,0,0,1,223.464,549.536Z" transform="translate(-210.627 -531.803)" fill="#fff"/>
      <path id="Path_84" data-name="Path 84" d="M234.907,562.141c.043-.111.157-.108.243-.149a12.223,12.223,0,0,0,2.716-1.68c.292-.248.578-.5.848-.77.04-.04.071-.148.167-.069a3.179,3.179,0,0,1-.969,1.375,4.784,4.784,0,0,1-2.909,1.3A.633.633,0,0,1,234.907,562.141Z" transform="translate(-218.535 -539.814)" fill="#fff"/>
      <path id="Path_85" data-name="Path 85" d="M206.193,502.78c.157.16.312.029.468,0,.119.037.265-.059.364.075-.114.047-.227.094-.341.139-.051.02-.094.041-.063.107a.361.361,0,0,1-.251.1,10.632,10.632,0,0,0-3.06,1.061c-.363.191-.7.433-1.053.632-.007-.146-.044-.258-.23-.2-.071.02-.053-.028-.046-.063.014-.067.085-.095.114-.152.074-.043.2-.013.212-.146a11.284,11.284,0,0,1,3.787-1.541A.672.672,0,0,1,206.193,502.78Z" transform="translate(-196.258 -501.231)" fill="#fff"/>
      <path id="Path_86" data-name="Path 86" d="M205.379,544.476c-.1-.148-.271-.18-.409-.263a6.36,6.36,0,0,1-2.712-3.265c-.029-.076-.025-.192-.142-.217a.842.842,0,0,1,.4-.12.32.32,0,0,1,.1.167,6.025,6.025,0,0,0,1.45,2.248,6.31,6.31,0,0,0,1.339.983c.067.038.176.055.131.179A.673.673,0,0,1,205.379,544.476Z" transform="translate(-196.353 -526.996)" fill="#fff"/>
      <path id="Path_87" data-name="Path 87" d="M196.7,561.164a.08.08,0,0,1,0-.02c.016-.067-.041-.167.039-.2.063-.022.131.051.181.1a10.345,10.345,0,0,0,1.711,1.267c.207.128.427.235.641.352.062.034.139.05.17.127a1.368,1.368,0,0,1-.928.043,2.561,2.561,0,0,1-1.624-1.141A1.029,1.029,0,0,1,196.7,561.164Z" transform="translate(-192.688 -540.828)" fill="#fff"/>
      <path id="Path_88" data-name="Path 88" d="M218.441,501.1a1.054,1.054,0,0,1,.312-.041,15.279,15.279,0,0,1,1.74.045,11.376,11.376,0,0,1,2.9.708c.071.028.134.057.2,0a.481.481,0,0,1-.22.321.271.271,0,0,1-.229-.014,10.529,10.529,0,0,0-4.072-.689,2.534,2.534,0,0,1-.514-.013c-.038-.007-.077-.022-.081-.072C218.565,501.251,218.41,501.192,218.441,501.1Z" transform="translate(-207.394 -500.068)" fill="#fff"/>
      <path id="Path_89" data-name="Path 89" d="M234.163,553.618l.089.01c.055.1-.027.148-.078.2a9.142,9.142,0,0,1-2.135,1.628,8.288,8.288,0,0,1-1.183.556c-.169.06-.2.054-.266-.056a1.949,1.949,0,0,1,.36-.55,3.264,3.264,0,0,0,.925-.431,7.07,7.07,0,0,0,1.652-1.237A1.778,1.778,0,0,1,234.163,553.618Z" transform="translate(-215.615 -535.872)" fill="#fff"/>
      <path id="Path_90" data-name="Path 90" d="M206.365,544.1a1.564,1.564,0,0,0-.525-.358,5.863,5.863,0,0,1-1.964-2.036,4.917,4.917,0,0,1-.531-1.185.609.609,0,0,1,.315-.04c.122,0,.118.105.144.177a5.569,5.569,0,0,0,2.514,2.914c.062.036.137.057.17.13A.8.8,0,0,1,206.365,544.1Z" transform="translate(-197.185 -526.903)" fill="#fff"/>
      <path id="Path_91" data-name="Path 91" d="M230.186,555.977c.063.081.139.055.214.025a9.529,9.529,0,0,0,2.336-1.306,9.661,9.661,0,0,0,.99-.872c.05-.051.118-.09.121-.174h.46a9.337,9.337,0,0,1-4.315,2.815A1.218,1.218,0,0,1,230.186,555.977Z" transform="translate(-215.211 -535.894)" fill="#fff"/>
      <path id="Path_92" data-name="Path 92" d="M200.382,560.825c-.5-.271-1-.531-1.465-.849a14.04,14.04,0,0,1-1.476-1.175.813.813,0,0,1,.48-.228,16.53,16.53,0,0,0,1.533,1.157c.33.208.683.374,1.012.582A.658.658,0,0,1,200.382,560.825Z" transform="translate(-193.191 -539.224)" fill="#fff"/>
      <path id="Path_93" data-name="Path 93" d="M203.532,507.361a.586.586,0,0,1-.2-.276c.034-.1.122-.138.2-.189a9.826,9.826,0,0,1,4.141-1.628.213.213,0,0,1,.189.026.641.641,0,0,1,.051.318.4.4,0,0,1-.24.079,9.451,9.451,0,0,0-3.665,1.38A1.714,1.714,0,0,1,203.532,507.361Z" transform="translate(-197.174 -502.91)" fill="#fff"/>
      <path id="Path_94" data-name="Path 94" d="M223.684,499.606a2.227,2.227,0,0,1-.736-.206,12.22,12.22,0,0,0-2.235-.459,14.956,14.956,0,0,0-1.8-.046c-.07,0-.147.025-.209-.032a.915.915,0,0,1,.594-.361c.035.071.1.076.168.076a12.712,12.712,0,0,1,3.461.487c.05.014.1.048.144-.006A1.315,1.315,0,0,1,223.684,499.606Z" transform="translate(-207.575 -498.34)" fill="#fff"/>
      <path id="Path_95" data-name="Path 95" d="M202.844,505.564a1.2,1.2,0,0,1,.463-.348,10.271,10.271,0,0,1,3.708-1.406c.065-.011.129-.026.193-.039a.619.619,0,0,1,.208.278.277.277,0,0,1-.194.085,9.971,9.971,0,0,0-4.127,1.648c-.06.042-.109.1-.171.135A.607.607,0,0,1,202.844,505.564Z" transform="translate(-196.846 -501.904)" fill="#fff"/>
      <path id="Path_96" data-name="Path 96" d="M211.815,569.16c.05-.069.1-.02.16-.008a13.237,13.237,0,0,0,2.194.332,8.283,8.283,0,0,0,1.377,0,.332.332,0,0,1,.284.035,2.823,2.823,0,0,1-1.308.415,3.765,3.765,0,0,1-2.2-.37A1.506,1.506,0,0,1,211.815,569.16Z" transform="translate(-202.915 -546.36)" fill="#fff"/>
      <path id="Path_97" data-name="Path 97" d="M196.681,531.436a1.71,1.71,0,0,1-.263.558c-.06.082,0,.116.048.159.136.131.273.261.41.392a.787.787,0,0,1,.124.371c.006.072.03.164-.086.184l-.6-.583a1.887,1.887,0,0,1-.164-.847,8.217,8.217,0,0,1,.121-2.184c.028-.125.031-.268.174-.335a1.58,1.58,0,0,1,.311.727C196.706,530.4,196.7,530.916,196.681,531.436Z" transform="translate(-192.308 -519.198)" fill="#fff"/>
      <path id="Path_98" data-name="Path 98" d="M216.2,565.1a.369.369,0,0,1,.112.237c0,.12-.1.122-.182.139a4.424,4.424,0,0,1-.688.077,10.764,10.764,0,0,1-3.646-.384c-.082-.025-.192-.018-.214-.139a.638.638,0,0,1,.234-.248.787.787,0,0,1,.33.046,10.155,10.155,0,0,0,2.7.333,11.357,11.357,0,0,0,1.143-.084A.291.291,0,0,1,216.2,565.1Z" transform="translate(-202.755 -543.42)" fill="#fff"/>
      <path id="Path_99" data-name="Path 99" d="M203.958,508.1a4.151,4.151,0,0,1,.843-.575,9.7,9.7,0,0,1,3.12-1.131c.135-.023.273-.029.41-.043a.778.778,0,0,1-.04.442c-.1-.108-.215-.078-.333-.056a9.4,9.4,0,0,0-3.576,1.458.474.474,0,0,1-.188.107A.566.566,0,0,1,203.958,508.1Z" transform="translate(-197.6 -503.649)" fill="#fff"/>
      <path id="Path_100" data-name="Path 100" d="M246.409,514.539a10.729,10.729,0,0,1,1.4,2.245,9.435,9.435,0,0,1,.542,1.485.806.806,0,0,1,.013.138.641.641,0,0,1-.411-.109,5.651,5.651,0,0,0-.354-1.052,10.256,10.256,0,0,0-1.13-2.025c-.077-.108-.169-.2-.246-.311A.623.623,0,0,1,246.409,514.539Z" transform="translate(-226.189 -509.254)" fill="#fff"/>
      <path id="Path_101" data-name="Path 101" d="M246.292,533.559a.733.733,0,0,1,.311-.2c.1-.01.111.076.13.14a1.085,1.085,0,0,1,.049.371,9.692,9.692,0,0,1-.681,3.29c-.04.092-.06.211-.2.213a.889.889,0,0,1-.216-.352,8.236,8.236,0,0,0,.566-2.2A5.09,5.09,0,0,0,246.292,533.559Z" transform="translate(-225.827 -522.06)" fill="#fff"/>
      <path id="Path_102" data-name="Path 102" d="M247.573,532.451c.124-.038.253-.069.246-.24.019-.065.043-.12.116-.048a.144.144,0,0,1,.043.108c-.015.337.071.668.03,1.008s-.041.7-.09,1.046a9.422,9.422,0,0,1-.656,2.343c-.039.094-.054.235-.22.2a.452.452,0,0,1-.226-.164,8.412,8.412,0,0,0,.765-2.874A4.168,4.168,0,0,0,247.573,532.451Z" transform="translate(-226.592 -521.23)" fill="#fff"/>
      <path id="Path_103" data-name="Path 103" d="M226.021,547.042a7.151,7.151,0,0,1-1.1.725,5.444,5.444,0,0,1-1.723.55c-.085.011-.161.014-.169.122a.55.55,0,0,1-.083-.308c-.066-.186.05-.232.2-.256a5.826,5.826,0,0,0,.939-.229,5.336,5.336,0,0,0,1.5-.828c.06-.046.109-.123.2-.094A.835.835,0,0,1,226.021,547.042Z" transform="translate(-210.43 -531.133)" fill="#fff"/>
      <path id="Path_104" data-name="Path 104" d="M206.831,510.3a1.318,1.318,0,0,1-.517-.088c-.108-.095,0-.138.052-.176a4.856,4.856,0,0,1,.489-.3,8.533,8.533,0,0,1,2.57-.936c.095-.018.195-.053.28.031a1.281,1.281,0,0,1-.3.434.313.313,0,0,1-.182.07,7.629,7.629,0,0,0-2.34.946A.152.152,0,0,1,206.831,510.3Z" transform="translate(-199.162 -505.289)" fill="#fff"/>
      <path id="Path_105" data-name="Path 105" d="M238.08,504.77a.514.514,0,0,1,.481-.268,14.345,14.345,0,0,1,1.727,1.248c.056.045.1.1.187.1a.607.607,0,0,1-.118.658,6.248,6.248,0,0,1-.768-.621,14.077,14.077,0,0,0-1.335-.926C238.181,504.914,238.071,504.894,238.08,504.77Z" transform="translate(-220.681 -502.398)" fill="#fff"/>
      <path id="Path_106" data-name="Path 106" d="M198.272,545.038a2.533,2.533,0,0,1,.4.672,8.3,8.3,0,0,0,2.332,2.535c.06.043.145.074.159.165a1.25,1.25,0,0,1-.478,0,5.965,5.965,0,0,1-1.266-1.1,8.267,8.267,0,0,1-1.234-1.792A1.126,1.126,0,0,1,198.272,545.038Z" transform="translate(-193.697 -530.004)" fill="#fff"/>
      <path id="Path_107" data-name="Path 107" d="M217.147,501.965c.065.049.14.026.211.027a17.407,17.407,0,0,1,1.781.041,11.334,11.334,0,0,1,2.66.637c.08.03.162.055.243.081a.669.669,0,0,1-.292.183,5.972,5.972,0,0,1-.8-.238,9.918,9.918,0,0,0-2.918-.41,2.731,2.731,0,0,1-.5-.013c-.15-.191-.322-.121-.5-.045-.07.031-.146.049-.219.073-.112-.072-.266.064-.364-.075A4.159,4.159,0,0,1,217.147,501.965Z" transform="translate(-206.057 -500.682)" fill="#fff"/>
      <path id="Path_108" data-name="Path 108" d="M237.881,505.331c.246.21.542.343.8.528a16.849,16.849,0,0,1,1.43,1.14.276.276,0,0,1,.042.066.584.584,0,0,1-.523.183c-.234-.151-.423-.356-.642-.526a11.329,11.329,0,0,0-1.04-.726.315.315,0,0,1-.138-.136A.606.606,0,0,1,237.881,505.331Z" transform="translate(-220.482 -502.959)" fill="#fff"/>
      <path id="Path_109" data-name="Path 109" d="M193.569,527.2a.572.572,0,0,1,.342.13c-.03.256-.115.5-.163.753a8.468,8.468,0,0,0-.07,2.812,2.574,2.574,0,0,0,.085.366,1,1,0,0,1-.354.12c-.1-.051-.105-.149-.118-.238a9.161,9.161,0,0,1,.164-3.674A.488.488,0,0,1,193.569,527.2Z" transform="translate(-190.308 -517.875)" fill="#fff"/>
      <path id="Path_110" data-name="Path 110" d="M208.01,511.315a2.211,2.211,0,0,1,.823-.485,7.088,7.088,0,0,1,1.561-.528,1.771,1.771,0,0,1,.194-.021c.226.182.5.285.72.481-.079.192-.245.162-.4.157-.154-.085-.312-.163-.46-.257a.208.208,0,0,0-.277.017,3.224,3.224,0,0,1-2.066.656A.48.48,0,0,1,208.01,511.315Z" transform="translate(-200.341 -506.351)" fill="#fff"/>
      <path id="Path_111" data-name="Path 111" d="M207.145,543.655a4.59,4.59,0,0,1-1.057-.681,5.751,5.751,0,0,1-1.468-1.86c-.116-.22-.165-.47-.3-.68a.631.631,0,0,1,.361,0,5.42,5.42,0,0,1,.3.621,5.312,5.312,0,0,0,2.116,2.194.194.194,0,0,1,.1.092.152.152,0,0,1-.014.114A.293.293,0,0,1,207.145,543.655Z" transform="translate(-197.843 -526.853)" fill="#fff"/>
      <path id="Path_112" data-name="Path 112" d="M194.484,531.535c-.19-.078-.129-.267-.145-.4a7.788,7.788,0,0,1-.089-1.358,9.265,9.265,0,0,1,.293-2c.017-.061.021-.134.089-.171a.642.642,0,0,1,.252.17c.049.078.009.154-.009.229a8.534,8.534,0,0,0-.246,2.079,7.953,7.953,0,0,0,.1,1.083.44.44,0,0,1,0,.215A.509.509,0,0,1,194.484,531.535Z" transform="translate(-191.03 -518.146)" fill="#fff"/>
      <path id="Path_113" data-name="Path 113" d="M200.864,541.342a4.343,4.343,0,0,0,.461,1.111,6.851,6.851,0,0,0,1.366,1.734,6.4,6.4,0,0,0,1.265.909c.073.041.166.055.207.143a.617.617,0,0,1-.2.193,8.251,8.251,0,0,1-1.559-1.118,6.77,6.77,0,0,1-1.213-1.536,4.954,4.954,0,0,1-.573-1.28A.662.662,0,0,1,200.864,541.342Z" transform="translate(-195.342 -527.495)" fill="#fff"/>
      <path id="Path_114" data-name="Path 114" d="M199.989,541.282c.06.04.071.107.094.168a7.085,7.085,0,0,0,1.306,2.169,6.923,6.923,0,0,0,1.839,1.469c.053.03.105.057.106.128a.574.574,0,0,1-.2.149,7.453,7.453,0,0,1-1.6-1.192,7.018,7.018,0,0,1-1.817-2.965c-.018-.061-.052-.126,0-.187C199.834,541.082,199.884,541.209,199.989,541.282Z" transform="translate(-194.711 -527.279)" fill="#fff"/>
      <path id="Path_115" data-name="Path 115" d="M202.331,546.705c-.073-.136-.215-.184-.333-.263a7.7,7.7,0,0,1-2.4-2.57c-.139-.24-.241-.5-.366-.741-.032-.062-.049-.142-.141-.148l.191-.278c.119,0,.125.1.155.175a7.549,7.549,0,0,0,1.013,1.744,7.286,7.286,0,0,0,1.923,1.725c.092.058.234.07.247.221A.838.838,0,0,1,202.331,546.705Z" transform="translate(-194.305 -528.422)" fill="#fff"/>
      <path id="Path_116" data-name="Path 116" d="M203.1,506.5a.144.144,0,0,1,.081-.142,10.485,10.485,0,0,1,4.06-1.68c.116-.022.234-.031.351-.046a.513.513,0,0,1,.11.239,9.987,9.987,0,0,0-2.654.732,11.4,11.4,0,0,0-1.873,1.058A.242.242,0,0,1,203.1,506.5Z" transform="translate(-197.016 -502.485)" fill="#fff"/>
      <path id="Path_117" data-name="Path 117" d="M211.314,565.558a6.956,6.956,0,0,0,1.41.351,11.45,11.45,0,0,0,2.346.118c.281-.006.562-.05.843-.081a.175.175,0,0,0,.132-.08.426.426,0,0,1,.043.283,2.243,2.243,0,0,1-.756.106,6.468,6.468,0,0,1-1.2.023c-.256-.049-.523-.014-.787-.042a11.308,11.308,0,0,1-1.873-.359c-.095-.026-.188-.058-.282-.086A.4.4,0,0,1,211.314,565.558Z" transform="translate(-202.491 -543.948)" fill="#fff"/>
      <path id="Path_118" data-name="Path 118" d="M223.983,550.64c.072-.088.18-.072.273-.091a6.149,6.149,0,0,0,2.463-1.093c.063-.047.134-.082.2-.122a1.18,1.18,0,0,1,0,.6.333.333,0,0,0-.237.083,6.516,6.516,0,0,1-2.011.875,1.43,1.43,0,0,0-.3.111A1.043,1.043,0,0,1,223.983,550.64Z" transform="translate(-211.146 -532.911)" fill="#fff"/>
      <path id="Path_119" data-name="Path 119" d="M246.112,515.685c.17.04.224.2.308.317a10.023,10.023,0,0,1,1.42,2.84c.022.071.107.154,0,.231a2.794,2.794,0,0,0-.108.545c-.11.009-.141-.067-.157-.151a.4.4,0,0,0-.033-.165.375.375,0,0,1,.019-.192.187.187,0,0,0-.067-.24,5.586,5.586,0,0,1-.2-.535,9.853,9.853,0,0,0-1.109-2.067c-.042-.06-.076-.123-.113-.185A.657.657,0,0,1,246.112,515.685Z" transform="translate(-226.079 -510.035)" fill="#fff"/>
      <path id="Path_120" data-name="Path 120" d="M209.039,508.153a3.733,3.733,0,0,0-1.079.217,8.358,8.358,0,0,0-2.191,1c-.05.032-.179.037-.121.162a1.068,1.068,0,0,1-.361-.142c-.023-.108.058-.154.126-.2a8.785,8.785,0,0,1,3.509-1.393c.081-.014.2-.07.229.086A.691.691,0,0,1,209.039,508.153Z" transform="translate(-198.497 -504.613)" fill="#fff"/>
      <path id="Path_121" data-name="Path 121" d="M198.16,546.51a5,5,0,0,1,.492.754,8.662,8.662,0,0,0,1.445,1.656,2.746,2.746,0,0,1,.564.487,2.025,2.025,0,0,1-.917-.262,10.176,10.176,0,0,1-1.44-1.707.292.292,0,0,0-.057-.054A2.021,2.021,0,0,1,198.16,546.51Z" transform="translate(-193.667 -531.001)" fill="#fff"/>
      <path id="Path_122" data-name="Path 122" d="M195.41,531.737a1.582,1.582,0,0,1-.114-.6,7.783,7.783,0,0,1,.27-3.009.914.914,0,0,1,.286.33,2.7,2.7,0,0,0-.2.9,8.25,8.25,0,0,0-.037,1.517c.006.318.07.636.108.954C195.613,531.811,195.564,531.591,195.41,531.737Z" transform="translate(-191.712 -518.502)" fill="#fff"/>
      <path id="Path_123" data-name="Path 123" d="M190.343,544.27l-.014.218a2.2,2.2,0,0,1-.354-.593,10.262,10.262,0,0,1-.846-2.386c-.015-.065-.045-.127.028-.175a5.189,5.189,0,0,1,1.021,2.006A3.335,3.335,0,0,1,190.343,544.27Z" transform="translate(-187.557 -527.482)" fill="#fff"/>
      <path id="Path_124" data-name="Path 124" d="M189.644,528.335a1.3,1.3,0,0,1,.449-.462c.114.059.077.159.059.244a10.276,10.276,0,0,0-.2,2.476c.005.258.042.512.063.768.007.085.028.172-.044.242a1.24,1.24,0,0,1-.434-.484A13.261,13.261,0,0,1,189.644,528.335Z" transform="translate(-187.826 -518.327)" fill="#fff"/>
      <path id="Path_125" data-name="Path 125" d="M249.906,538.012a.675.675,0,0,1-.356.158c-.084-.1-.031-.2.006-.3a10.289,10.289,0,0,0,.633-2.406,9.42,9.42,0,0,0,.06-1.263c0-.109-.02-.229.1-.3a.768.768,0,0,1,.278.354,3.452,3.452,0,0,1-.034.982A10.375,10.375,0,0,1,249.906,538.012Z" transform="translate(-228.409 -522.432)" fill="#fff"/>
      <path id="Path_126" data-name="Path 126" d="M255.983,534.993c.15-.153.235-.142.311.05a1.738,1.738,0,0,1,.088.624,5.183,5.183,0,0,1-.281,1.771,1.124,1.124,0,0,1-.223.416c-.081.086-.171.138-.25-.007a.256.256,0,0,1,0-.191,11.984,11.984,0,0,0,.341-2.546A.692.692,0,0,1,255.983,534.993Z" transform="translate(-232.538 -523.096)" fill="#fff"/>
      <path id="Path_127" data-name="Path 127" d="M219.8,502.817c.037-.052.093-.041.145-.043a10.32,10.32,0,0,1,3.954.631.19.19,0,0,1,.112.073,1.666,1.666,0,0,1-.552.162.918.918,0,0,0-.418-.163,9.017,9.017,0,0,0-2.564-.368c-.094,0-.183-.025-.276-.026A1.375,1.375,0,0,1,219.8,502.817Z" transform="translate(-208.314 -501.224)" fill="#fff"/>
      <path id="Path_128" data-name="Path 128" d="M225.735,546.233a5.508,5.508,0,0,1-1.74.992,5.14,5.14,0,0,1-.879.206c-.124.018-.241.04-.218.209a.9.9,0,0,1,0-.529.624.624,0,0,1,.3-.1,4.788,4.788,0,0,0,2.1-.956c.045-.036.087-.084.156-.061A.741.741,0,0,1,225.735,546.233Z" transform="translate(-210.383 -530.638)" fill="#fff"/>
      <path id="Path_129" data-name="Path 129" d="M249.747,533.482a.736.736,0,0,0-.04.272,9.1,9.1,0,0,1-.724,3.787.582.582,0,0,0-.03.213.538.538,0,0,1-.32.011.35.35,0,0,1,.054-.264,9.084,9.084,0,0,0,.71-2.891,4.133,4.133,0,0,0,.024-1.1.232.232,0,0,1,.048-.223A.683.683,0,0,1,249.747,533.482Z" transform="translate(-227.811 -522.014)" fill="#fff"/>
      <path id="Path_130" data-name="Path 130" d="M208.6,543.611l0-.123c-.01-.017-.027-.036-.025-.053.027-.263-.159-.369-.341-.5a5.141,5.141,0,0,1-1.8-2.229.109.109,0,0,1-.011-.076,1.486,1.486,0,0,1,.555.191,4.644,4.644,0,0,0,1.55,1.789A1.865,1.865,0,0,1,208.6,543.611Z" transform="translate(-199.258 -527.004)" fill="#fff"/>
      <path id="Path_131" data-name="Path 131" d="M234.283,553.987a.615.615,0,0,1-.244.315,9.38,9.38,0,0,1-2.049,1.313c-.084.04-.175.134-.284.039a3.409,3.409,0,0,1,.586-.618c.048-.047.133-.066.126-.158.024-.172.142-.217.293-.216.091.02.147-.048.211-.088A4.484,4.484,0,0,1,234.283,553.987Z" transform="translate(-216.369 -536.076)" fill="#fff"/>
      <path id="Path_132" data-name="Path 132" d="M218.694,533.181a1.034,1.034,0,0,1,.161-.164c.159-.1.17-.217.045-.352a.791.791,0,0,1,.826-.241.821.821,0,0,1,.593.655.74.74,0,0,1-.313.736,1.016,1.016,0,0,1-.281-.229c-.049-.083.017-.134.052-.194a.327.327,0,0,0-.034-.417.312.312,0,0,0-.38-.066.328.328,0,0,0-.171.384c.014.08.085.156.019.243a.912.912,0,0,1-.239.241A.794.794,0,0,1,218.694,533.181Z" transform="translate(-207.568 -521.384)" fill="#fff"/>
      <path id="Path_133" data-name="Path 133" d="M220.072,533.217a1.963,1.963,0,0,0,.233-.386.766.766,0,0,0-.215-.79.738.738,0,0,0-.846-.118c-.093.048-.167.134-.279.144a.97.97,0,0,1-.175-.273,1.467,1.467,0,0,1,.865-.288,1.125,1.125,0,0,1,1.02,1.025,1.27,1.27,0,0,1-.324.883A.925.925,0,0,1,220.072,533.217Z" transform="translate(-207.633 -520.786)" fill="#fff"/>
      <path id="Path_134" data-name="Path 134" d="M202.17,544.5c-.336-.24-.691-.451-1.016-.708a7.308,7.308,0,0,1-1.7-1.951,6.321,6.321,0,0,1-.547-1.116.153.153,0,0,0-.073-.088c-.077-.183-.255-.282-.365-.436.092-.1.022-.206,0-.309q-.021-.123-.042-.246a3.168,3.168,0,0,1,.438.446,6.444,6.444,0,0,0,1.118,2.275,7.117,7.117,0,0,0,2.12,1.9c.068.04.167.064.179.17Z" transform="translate(-193.86 -526.345)" fill="#fff"/>
      <path id="Path_135" data-name="Path 135" d="M201.469,560.244a2.06,2.06,0,0,1-.705-.341,11.174,11.174,0,0,1-1.772-1.281.161.161,0,0,1-.068-.116,1.279,1.279,0,0,1,.557,0,10.119,10.119,0,0,0,1.556,1.076c.1.053.183.129.277.188A.977.977,0,0,1,201.469,560.244Z" transform="translate(-194.194 -539.156)" fill="#fff"/>
      <path id="Path_136" data-name="Path 136" d="M251.984,517.668c-.166-.092-.16-.28-.213-.423a12.174,12.174,0,0,0-1.275-2.484c-.037-.056-.137-.109-.043-.2a3.669,3.669,0,0,1,1.514,2.4A1.834,1.834,0,0,1,251.984,517.668Z" transform="translate(-229.024 -509.269)" fill="#fff"/>
      <path id="Path_137" data-name="Path 137" d="M225.529,545.588a4.762,4.762,0,0,1-1.978,1.008,2.644,2.644,0,0,1-.577.1.858.858,0,0,1,.129-.435.222.222,0,0,1,.125-.053,3.991,3.991,0,0,0,1.772-.785.215.215,0,0,1,.088-.042A.917.917,0,0,1,225.529,545.588Z" transform="translate(-210.463 -530.224)" fill="#fff"/>
      <path id="Path_138" data-name="Path 138" d="M216.686,564.693a9.237,9.237,0,0,1-1.8.119,10.963,10.963,0,0,1-2.536-.4c-.017,0-.03-.024-.044-.037a.811.811,0,0,1,.278-.2c.028.075.1.076.16.093a10.8,10.8,0,0,0,1.784.28,11.9,11.9,0,0,0,1.594-.012,2.093,2.093,0,0,1,.638-.037C216.663,564.538,216.607,564.592,216.686,564.693Z" transform="translate(-203.244 -543.012)" fill="#fff"/>
      <path id="Path_139" data-name="Path 139" d="M250.7,538.753a.132.132,0,0,1-.012-.129,10.077,10.077,0,0,0,.511-1.758,8.833,8.833,0,0,0,.145-1.07,4.435,4.435,0,0,1,.072-.8,1.241,1.241,0,0,1,.241.58,7.481,7.481,0,0,1-.557,2.834A.964.964,0,0,1,250.7,538.753Z" transform="translate(-229.199 -523.173)" fill="#fff"/>
      <path id="Path_140" data-name="Path 140" d="M250.3,550.387c-.179-.1-.17-.276-.15-.435a2.243,2.243,0,0,1,.8-1.494c.117-.1.256-.2.427-.094a.25.25,0,0,1-.03.244,12.27,12.27,0,0,1-.9,1.646A.28.28,0,0,1,250.3,550.387Z" transform="translate(-228.835 -532.226)" fill="#fff"/>
      <path id="Path_141" data-name="Path 141" d="M193.075,527.135c-.071.341-.15.68-.212,1.022a8.971,8.971,0,0,0-.074,2.342,3.878,3.878,0,0,0,.125.815l-.016.008-.016,0c-.245.033-.279.014-.316-.224a9.116,9.116,0,0,1,.2-3.848.31.31,0,0,1,.07-.14A.417.417,0,0,1,193.075,527.135Z" transform="translate(-189.814 -517.805)" fill="#fff"/>
      <path id="Path_142" data-name="Path 142" d="M247.516,534.55c.1-.007.121-.095.15-.164a9.739,9.739,0,0,0,.7-2.7,12.008,12.008,0,0,0,.031-1.729c0-.067,0-.179-.111-.063.048-.4.072-.8.157-1.19.113,0,.129.088.153.167.018.061,0,.129.035.189-.038.336-.077.673-.113,1.01,0,.02.025.043.039.065a.365.365,0,0,1,.057.207,9.506,9.506,0,0,1-.853,4.313A.474.474,0,0,1,247.516,534.55Z" transform="translate(-227.064 -518.909)" fill="#fff"/>
      <path id="Path_143" data-name="Path 143" d="M247.26,533.123c.15.135.114.328.111.485a9.993,9.993,0,0,1-.207,1.977,10.455,10.455,0,0,1-.475,1.528c-.037.1-.05.226-.184.262a.361.361,0,0,1-.15-.161,1.183,1.183,0,0,0,.271-.557,7.463,7.463,0,0,0,.472-2.105,3.926,3.926,0,0,0,.043-1.182.255.255,0,0,0-.086-.17A.291.291,0,0,1,247.26,533.123Z" transform="translate(-226.279 -521.903)" fill="#fff"/>
      <path id="Path_144" data-name="Path 144" d="M225.206,552.085c0-.082.057-.1.13-.12a6.618,6.618,0,0,0,2.257-.977c.063-.043.127-.1.157.029a.849.849,0,0,1-.154.446,8.473,8.473,0,0,1-1.589.735,1.392,1.392,0,0,1-.4.08A.974.974,0,0,1,225.206,552.085Z" transform="translate(-211.973 -533.999)" fill="#fff"/>
      <path id="Path_145" data-name="Path 145" d="M188.945,529.3c.134.168.021.349,0,.509a9.11,9.11,0,0,0-.067,1.414,3.822,3.822,0,0,0,.022.747c.013.063-.042.075-.062.113-.032-.017-.058-.11-.1,0s-.079.188-.119.281l-.145-.2a1.324,1.324,0,0,0,.06-.925A2.446,2.446,0,0,1,188.945,529.3Z" transform="translate(-187.127 -519.296)" fill="#fff"/>
      <path id="Path_146" data-name="Path 146" d="M246.045,533.984c.083.038.079.112.079.186a8.368,8.368,0,0,1-.289,2.261,8.24,8.24,0,0,1-.27.844c-.027.067-.047.139-.125.169a.687.687,0,0,1-.117-.308,1.087,1.087,0,0,1,.1-.42,8.2,8.2,0,0,0,.372-2.46A.8.8,0,0,1,246.045,533.984Z" transform="translate(-225.579 -522.484)" fill="#fff"/>
      <path id="Path_147" data-name="Path 147" d="M225.359,545.212a1.95,1.95,0,0,1-.724.5,3.3,3.3,0,0,1-1.261.377A1.634,1.634,0,0,1,225.359,545.212Z" transform="translate(-210.734 -530.047)" fill="#fff"/>
      <path id="Path_148" data-name="Path 148" d="M192.4,527.112c-.029.368-.154.718-.211,1.082a9.079,9.079,0,0,0-.073,2.242c.02.229.063.456.076.684.011.2.108.214.255.2a.688.688,0,0,1-.444-.009.976.976,0,0,1-.1-.417,8.411,8.411,0,0,1,0-2.518c.053-.36.128-.714.21-1.067a.6.6,0,0,1,.092-.2Z" transform="translate(-189.381 -517.812)" fill="#fff"/>
      <path id="Path_149" data-name="Path 149" d="M208.751,507.549c-.149-.131-.311-.023-.45,0a8.958,8.958,0,0,0-2.436.851c-.291.154-.569.333-.849.506a.7.7,0,0,0-.13.146.479.479,0,0,1-.2-.124,2.469,2.469,0,0,1,.674-.475,9.143,9.143,0,0,1,2.5-1.015c.248-.061.5-.117.753-.155.139-.02.166.022.167.135A.149.149,0,0,1,208.751,507.549Z" transform="translate(-198.095 -504.279)" fill="#fff"/>
      <path id="Path_150" data-name="Path 150" d="M255.177,535.213a.96.96,0,0,1,.035.508,11.472,11.472,0,0,1-.391,2.347,1.323,1.323,0,0,1-.135-.766c0-.169-.033-.208-.183-.142-.134-.04-.084-.119-.041-.2.214-.047.262-.195.282-.4a3.552,3.552,0,0,1,.314-1.179A.36.36,0,0,1,255.177,535.213Z" transform="translate(-231.731 -523.315)" fill="#fff"/>
      <path id="Path_151" data-name="Path 151" d="M215.13,563a3.874,3.874,0,0,1,2.7.165c0,.168-.147.146-.24.156a5.557,5.557,0,0,1-.853.008,9.414,9.414,0,0,1-1.418-.165C215.235,563.148,215.109,563.154,215.13,563Z" transform="translate(-205.156 -542.106)" fill="#fff"/>
      <path id="Path_152" data-name="Path 152" d="M190.765,531.259a15.67,15.67,0,0,1-.082-1.672,9.537,9.537,0,0,1,.219-1.891.2.2,0,0,0-.014-.168.724.724,0,0,1,.315-.164,1.237,1.237,0,0,1-.086.6,9.987,9.987,0,0,0-.166,2.515,5.231,5.231,0,0,0,.088.723.209.209,0,0,1-.034.2A.564.564,0,0,1,190.765,531.259Z" transform="translate(-188.62 -517.983)" fill="#fff"/>
      <path id="Path_153" data-name="Path 153" d="M214.224,563.351c.024.1.119.1.189.109a10.841,10.841,0,0,0,2.178.163.388.388,0,0,0,.335-.107.841.841,0,0,1,.358.229.138.138,0,0,1-.127.077,10.853,10.853,0,0,1-2.081-.03c-.357-.046-.712-.1-1.064-.172-.08-.017-.173-.022-.223-.107A1.426,1.426,0,0,1,214.224,563.351Z" transform="translate(-204.249 -542.456)" fill="#fff"/>
      <path id="Path_154" data-name="Path 154" d="M221.035,503.648a2.783,2.783,0,0,1,.884-.021,10.235,10.235,0,0,1,1.934.348c.145.042.291.082.436.125.1.029.04.069,0,.105a1.841,1.841,0,0,1-.6.046,10.906,10.906,0,0,0-1.988-.315A2.408,2.408,0,0,1,221.035,503.648Z" transform="translate(-209.151 -501.789)" fill="#fff"/>
      <path id="Path_155" data-name="Path 155" d="M248.281,537.645a1.186,1.186,0,0,1,.179-.571,10.3,10.3,0,0,0,.543-2.155,12.991,12.991,0,0,0,.074-1.794l.159.051c.012.314.025.625.011.941a10.108,10.108,0,0,1-.362,2.228,9.732,9.732,0,0,1-.485,1.313Z" transform="translate(-227.579 -521.907)" fill="#fff"/>
      <path id="Path_156" data-name="Path 156" d="M250.631,550.477a13.618,13.618,0,0,0,.958-1.709,1.425,1.425,0,0,0,.116-.315.416.416,0,0,1,.144.422,2.341,2.341,0,0,1-.712,1.422C251,550.428,250.852,550.565,250.631,550.477Z" transform="translate(-229.171 -532.316)" fill="#fff"/>
      <path id="Path_157" data-name="Path 157" d="M241.479,505.8c-.041.159-.1.043-.145.006a15.33,15.33,0,0,0-1.365-1.042,1.106,1.106,0,0,1-.4-.309h0a.4.4,0,0,1,.249,0A2.027,2.027,0,0,1,241.479,505.8Z" transform="translate(-221.686 -502.356)" fill="#fff"/>
      <path id="Path_158" data-name="Path 158" d="M209.682,543.014c-.244-.029-.377-.229-.54-.37a4.705,4.705,0,0,1-.956-1.194.365.365,0,0,1-.054-.226,1.932,1.932,0,0,1,.717.471,2.378,2.378,0,0,0,.512.6A1.816,1.816,0,0,1,209.682,543.014Z" transform="translate(-200.422 -527.397)" fill="#fff"/>
      <path id="Path_159" data-name="Path 159" d="M246.072,516.914a2.653,2.653,0,0,1,.575.814,8.718,8.718,0,0,1,.812,1.743.483.483,0,0,1,.039.231,1.346,1.346,0,0,1-.4-.357,9.492,9.492,0,0,0-.735-1.524c-.056-.1-.09-.223-.22-.262A1.426,1.426,0,0,1,246.072,516.914Z" transform="translate(-226.082 -510.867)" fill="#fff"/>
      <path id="Path_160" data-name="Path 160" d="M237.878,506.969a10.6,10.6,0,0,1,1.474,1.038,2,2,0,0,1,.346.349,1.224,1.224,0,0,1-.7-.157A1.947,1.947,0,0,1,237.878,506.969Z" transform="translate(-220.545 -504.067)" fill="#fff"/>
      <path id="Path_161" data-name="Path 161" d="M245.549,534.826a.892.892,0,0,1,.042.573,7.284,7.284,0,0,1-.191,1.277,5.6,5.6,0,0,1-.323,1.03,1.15,1.15,0,0,1-.118-.568c.175-.642.249-1.3.36-1.957A.967.967,0,0,1,245.549,534.826Z" transform="translate(-225.334 -523.052)" fill="#fff"/>
      <path id="Path_162" data-name="Path 162" d="M252.816,538.027c.009.066-.027.142.041.2-.228.046-.3.208-.358.417a2.183,2.183,0,0,1-.515.978,8.336,8.336,0,0,1,.255-.951A9.964,9.964,0,0,0,252.5,537a1.424,1.424,0,0,1,.041-.212,3.081,3.081,0,0,1,.1,1.261C252.707,538.08,252.756,538.013,252.816,538.027Z" transform="translate(-230.086 -524.385)" fill="#fff"/>
      <path id="Path_163" data-name="Path 163" d="M226.438,553.35a9.736,9.736,0,0,0,1.654-.676c.105-.056.184-.195.337-.14a.527.527,0,0,1-.122.217c-.044.057-.063.11-.014.172a.491.491,0,0,1-.31.2,3.032,3.032,0,0,1-.767.292A1.6,1.6,0,0,1,226.438,553.35Z" transform="translate(-212.806 -535.073)" fill="#fff"/>
      <path id="Path_164" data-name="Path 164" d="M202.476,559.826a5,5,0,0,1-.943-.534c-.29-.192-.557-.419-.835-.63a.131.131,0,0,1-.055-.1,2.586,2.586,0,0,1,1.562.856A1.483,1.483,0,0,1,202.476,559.826Z" transform="translate(-195.358 -539.216)" fill="#fff"/>
      <path id="Path_165" data-name="Path 165" d="M191.979,527.126c-.073.354-.153.706-.214,1.062a3.787,3.787,0,0,0-.1.9c.018.263-.04.519-.025.785.027.487.1.968.139,1.453a.171.171,0,0,1-.119-.036.96.96,0,0,1-.1-.434,9.125,9.125,0,0,1-.038-2.086,9.339,9.339,0,0,1,.234-1.4.338.338,0,0,1,.107-.2Z" transform="translate(-189.158 -517.822)" fill="#fff"/>
      <path id="Path_166" data-name="Path 166" d="M191.735,527.243a9.9,9.9,0,0,0-.313,3.188c.013.313.075.624.115.936a.121.121,0,0,1-.119-.046,12.088,12.088,0,0,1-.125-1.767,9.877,9.877,0,0,1,.252-2.008c.019-.089.047-.177.07-.265A.154.154,0,0,1,191.735,527.243Z" transform="translate(-189.033 -517.9)" fill="#fff"/>
      <path id="Path_167" data-name="Path 167" d="M246.313,518.753c.021-.109.061-.082.1-.013.1.161.211.317.3.486.175.346.363.685.51,1.045a.565.565,0,0,1,.045.268,3.29,3.29,0,0,1-.614-.85c-.038-.068-.057-.171-.177-.135-.082-.1-.172-.2-.123-.342.086-.039.048-.1.03-.161A.788.788,0,0,1,246.313,518.753Z" transform="translate(-226.249 -512.064)" fill="#fff"/>
      <path id="Path_168" data-name="Path 168" d="M211.439,540.808l.48-.476c.01-.008.023-.019.034-.017a.605.605,0,0,1,.367.5,3.019,3.019,0,0,1-.48.466A2.022,2.022,0,0,1,211.439,540.808Z" transform="translate(-202.66 -526.772)" fill="#fff"/>
      <path id="Path_169" data-name="Path 169" d="M198.46,549.211a.262.262,0,0,1,.18.143,8.229,8.229,0,0,0,1.18,1.4.434.434,0,0,1,.138.213A2.745,2.745,0,0,1,198.46,549.211Z" transform="translate(-193.881 -532.828)" fill="#fff"/>
      <path id="Path_170" data-name="Path 170" d="M220.118,534.43c.02-.105-.085-.17-.083-.277,0-.191.1-.391.247-.425a.385.385,0,0,1,.463.168.35.35,0,0,1-.055.464.172.172,0,0,0-.058.121.073.073,0,0,1-.018-.008C220.364,534.268,220.364,534.268,220.118,534.43Z" transform="translate(-208.475 -522.281)" fill="#fff"/>
      <path id="Path_171" data-name="Path 171" d="M213.323,539.926a.894.894,0,0,0-.4-.484l.438-.437a.057.057,0,0,1,.071.012c.1.166.3.265.332.477Z" transform="translate(-203.664 -525.878)" fill="#fff"/>
      <path id="Path_172" data-name="Path 172" d="M245.257,535.925a6.959,6.959,0,0,1-.268,1.787.255.255,0,0,1-.092.17A3.124,3.124,0,0,1,245.257,535.925Z" transform="translate(-225.272 -523.794)" fill="#fff"/>
      <path id="Path_173" data-name="Path 173" d="M210.7,541.839a1.5,1.5,0,0,1,.4.474c-.08.089-.155.182-.24.265-.053.052-.01.092,0,.137a.867.867,0,0,1-.512-.6C210.528,542.1,210.567,541.9,210.7,541.839Z" transform="translate(-201.925 -527.809)" fill="#fff"/>
      <path id="Path_174" data-name="Path 174" d="M214.679,538.716l-.4-.489.384-.363c.031-.012.07-.028.092,0a1.118,1.118,0,0,1,.316.478A2.926,2.926,0,0,1,214.679,538.716Z" transform="translate(-204.579 -525.095)" fill="#fff"/>
      <path id="Path_175" data-name="Path 175" d="M216.473,535.985a4.231,4.231,0,0,1,.476-.45,1.521,1.521,0,0,1,.289.583,1.668,1.668,0,0,1-.365.339C216.682,536.349,216.613,536.137,216.473,535.985Z" transform="translate(-206.066 -523.522)" fill="#fff"/>
      <path id="Path_176" data-name="Path 176" d="M223.111,504.527a1.146,1.146,0,0,1,.662.006,7.647,7.647,0,0,1,1.219.231.15.15,0,0,1,.107.078,4.125,4.125,0,0,1-1.214-.094A3.088,3.088,0,0,1,223.111,504.527Z" transform="translate(-210.556 -502.38)" fill="#fff"/>
      <path id="Path_177" data-name="Path 177" d="M216.962,511.925c.13-.062.294-.037.4-.157a2.2,2.2,0,0,1,.553.349c.066.048.135.092.2.137.037.077-.024.1-.072.106a.722.722,0,0,1-.409,0Z" transform="translate(-206.396 -507.361)" fill="#fff"/>
      <path id="Path_178" data-name="Path 178" d="M215.789,536.926c.177.049.192.245.313.346a.57.57,0,0,1,.087.126,1.433,1.433,0,0,1-.319.319c-.149-.148-.209-.371-.408-.476Z" transform="translate(-205.382 -524.467)" fill="#fff"/>
      <path id="Path_179" data-name="Path 179" d="M233.13,555.09a.665.665,0,0,0-.293.216l-.511-.449c-.008-.192.149-.2.272-.238A2.867,2.867,0,0,1,233.13,555.09Z" transform="translate(-216.788 -536.497)" fill="#fff"/>
      <path id="Path_180" data-name="Path 180" d="M219.045,513.379a1.521,1.521,0,0,1,.381-.043c.049.006.09-.008.1-.065a3.179,3.179,0,0,1,.478.353c-.041.121-.143.061-.218.068a2.893,2.893,0,0,1-.294,0A2.989,2.989,0,0,1,219.045,513.379Z" transform="translate(-207.805 -508.383)" fill="#fff"/>
      <path id="Path_181" data-name="Path 181" d="M218.234,535.65c-.092-.2-.262-.354-.289-.583a1.093,1.093,0,0,1,.242-.224,4.034,4.034,0,0,0,.278.595A.806.806,0,0,1,218.234,535.65Z" transform="translate(-207.061 -523.05)" fill="#fff"/>
      <path id="Path_182" data-name="Path 182" d="M231.845,554.039c-.073.1-.229.1-.272.238a2.189,2.189,0,0,1-.36-.312,1.043,1.043,0,0,1,.31-.2C231.6,553.886,231.786,553.891,231.845,554.039Z" transform="translate(-216.035 -535.913)" fill="#fff"/>
      <path id="Path_183" data-name="Path 183" d="M245.527,520.326c.01.125.121.214.123.342a1.275,1.275,0,0,1-.35.068.258.258,0,0,1-.206-.317A1.522,1.522,0,0,1,245.527,520.326Z" transform="translate(-225.422 -513.179)" fill="#fff"/>
      <path id="Path_184" data-name="Path 184" d="M244.265,520.61a.7.7,0,0,0,.206.317,2.16,2.16,0,0,1-.445.115.749.749,0,0,0-.161-.319A1.229,1.229,0,0,1,244.265,520.61Z" transform="translate(-224.594 -513.372)" fill="#fff"/>
      <path id="Path_185" data-name="Path 185" d="M250.586,527.814c-.109-.094-.045-.28-.188-.356l.08-.6c.127.068.027.271.19.317A4.118,4.118,0,0,1,250.586,527.814Z" transform="translate(-229.013 -517.625)" fill="#fff"/>
      <path id="Path_186" data-name="Path 186" d="M228.34,512.263c-.1.065-.213.021-.319.031A.754.754,0,0,1,228.34,512.263Z" transform="translate(-213.877 -507.647)" fill="#fff"/>
      <path id="Path_187" data-name="Path 187" d="M239.814,504.452h-.249A.336.336,0,0,1,239.814,504.452Z" transform="translate(-221.686 -502.349)" fill="#fff"/>
      <path id="Path_188" data-name="Path 188" d="M230.087,539.754c.07,0,.144-.027.206.028A.346.346,0,0,1,230.087,539.754Z" transform="translate(-215.274 -526.382)" fill="#fff"/>
      <path id="Path_189" data-name="Path 189" d="M190.961,507.578c.176.059.234.222.317.362.03.109-.058.153-.119.207a11.834,11.834,0,0,0-1.784,1.933,10.281,10.281,0,0,0-1.344,2.486.63.63,0,0,1-.131.263.538.538,0,0,1-.513-.363,1.681,1.681,0,0,0,.245-.5,11.73,11.73,0,0,1,1.983-3.142,10.913,10.913,0,0,1,1.211-1.17A.272.272,0,0,1,190.961,507.578Z" transform="translate(-186.39 -504.479)" fill="#fff"/>
      <path id="Path_190" data-name="Path 190" d="M190.692,507.384c-.168.186-.375.33-.556.5a11.494,11.494,0,0,0-2.045,2.555,13.779,13.779,0,0,0-.847,1.742c-.025.061-.026.141-.127.09a1.463,1.463,0,0,1-.08-.994,13.046,13.046,0,0,1,1.51-2.441c.305-.383.639-.739.978-1.092a1.9,1.9,0,0,0,.293-.321A.924.924,0,0,1,190.692,507.384Z" transform="translate(-186.122 -504.285)" fill="#fff"/>
      <path id="Path_191" data-name="Path 191" d="M188.972,513.134a5.365,5.365,0,0,1,.425-1.08,10.747,10.747,0,0,1,1.732-2.58c.354-.393.742-.746,1.129-1.1a.477.477,0,0,0,.094-.124,6.545,6.545,0,0,1,.95-.215c.045.093-.124.119-.068.215-.235.059-.468.122-.7.175-.1.021-.119.058-.111.158a1.122,1.122,0,0,1-.022.468c-.091-.112-.161-.036-.229.028a10.721,10.721,0,0,0-2.587,3.745c-.035.08-.054.163-.084.243A.821.821,0,0,1,188.972,513.134Z" transform="translate(-187.463 -504.785)" fill="#fff"/>
      <path id="Path_192" data-name="Path 192" d="M203.545,524.235a.979.979,0,0,1-.435-.437,7.13,7.13,0,0,1,.965-1.741,5,5,0,0,1,.58-.646,1.208,1.208,0,0,1,.677.09c.054.128-.058.179-.123.241a5.786,5.786,0,0,0-.945,1.146,5.6,5.6,0,0,0-.537,1.125C203.7,524.105,203.692,524.233,203.545,524.235Z" transform="translate(-197.027 -513.915)" fill="#fff"/>
      <path id="Path_193" data-name="Path 193" d="M204.455,524.458c.168-.136.161-.352.239-.529a5.775,5.775,0,0,1,1.257-1.865c.106-.1.244-.183.291-.339a.956.956,0,0,1,.439.266c.053.1-.025.145-.083.2a4.976,4.976,0,0,0-1.531,2.277.384.384,0,0,1-.1.193A1,1,0,0,1,204.455,524.458Z" transform="translate(-197.936 -514.139)" fill="#fff"/>
      <path id="Path_194" data-name="Path 194" d="M190.559,514.885c-.06-.211.089-.366.162-.532a10.521,10.521,0,0,1,1.4-2.331,11.36,11.36,0,0,1,1.1-1.189c.056-.052.12-.122.2-.106.055.011.022.093.035.142a1.035,1.035,0,0,1-.083.429c-.083,0-.13.058-.182.108a9.491,9.491,0,0,0-2.09,2.986.51.51,0,0,0-.063.246A1.31,1.31,0,0,1,190.559,514.885Z" transform="translate(-188.527 -506.66)" fill="#fff"/>
      <path id="Path_195" data-name="Path 195" d="M206.89,502.3c-.061.087-.163.084-.249.1a10.767,10.767,0,0,0-3.436,1.388.316.316,0,0,1-.2.061,1.706,1.706,0,0,1,.39-.712c.418-.164.8-.4,1.221-.564a13.293,13.293,0,0,1,1.519-.5A1.689,1.689,0,0,1,206.89,502.3Z" transform="translate(-196.955 -500.755)" fill="#fff"/>
      <path id="Path_196" data-name="Path 196" d="M191.975,515.676c-.073-.049-.051-.111-.024-.175a9.974,9.974,0,0,1,1.319-2.19,9.026,9.026,0,0,1,.9-.97c.034-.033.091-.167.144-.006a1.828,1.828,0,0,1-.2.6,8.613,8.613,0,0,0-1.408,1.926,1.453,1.453,0,0,0-.213.419A2.022,2.022,0,0,1,191.975,515.676Z" transform="translate(-189.461 -507.701)" fill="#fff"/>
      <path id="Path_197" data-name="Path 197" d="M189.921,507.7c.074.11-.046.138-.089.181a12.938,12.938,0,0,0-1.851,2.252,11.632,11.632,0,0,0-.677,1.205.39.39,0,0,1-.165.215,2.866,2.866,0,0,1,.268-.943,5.97,5.97,0,0,1,2.25-2.793A.564.564,0,0,1,189.921,507.7Z" transform="translate(-186.224 -504.564)" fill="#fff"/>
      <path id="Path_198" data-name="Path 198" d="M205.751,540.533a5.492,5.492,0,0,1,.387.7,4.789,4.789,0,0,0,1.519,1.6.479.479,0,0,1,.275.551,3.318,3.318,0,0,1-.98-.652,5.354,5.354,0,0,1-1.5-2.13.613.613,0,0,1-.021-.116A.722.722,0,0,1,205.751,540.533Z" transform="translate(-198.597 -526.902)" fill="#fff"/>
      <path id="Path_199" data-name="Path 199" d="M208.663,523.416a.71.71,0,0,1,.16.4c.025.069-.036.092-.071.125a4.3,4.3,0,0,0-1.179,1.725.276.276,0,0,1-.063.1,1.1,1.1,0,0,1-.437.073.165.165,0,0,1-.019-.185,4.559,4.559,0,0,1,1.553-2.213A.114.114,0,0,1,208.663,523.416Z" transform="translate(-199.681 -515.288)" fill="#fff"/>
      <path id="Path_200" data-name="Path 200" d="M207.994,522.827c-.161.155-.327.3-.482.466a4.539,4.539,0,0,0-1.068,1.74.488.488,0,0,0-.04.212.75.75,0,0,1-.358-.034,4.406,4.406,0,0,1,.767-1.616,4.3,4.3,0,0,1,.869-.916.168.168,0,0,0,.075-.134A.648.648,0,0,1,207.994,522.827Z" transform="translate(-199.013 -514.697)" fill="#fff"/>
      <path id="Path_201" data-name="Path 201" d="M208.5,526.587a3.3,3.3,0,0,1,.657-1.267,4.1,4.1,0,0,1,.656-.681,1.4,1.4,0,0,1-.241,1.2A1.759,1.759,0,0,1,208.5,526.587Z" transform="translate(-200.674 -516.118)" fill="#fff"/>
      <path id="Path_202" data-name="Path 202" d="M204.247,521.446c-.055.194-.229.3-.349.442a6.128,6.128,0,0,0-1.044,1.733c-.031.081-.039.186-.152.212a1.128,1.128,0,0,1-.166-.881c.073.07.047.158.047.28a7.994,7.994,0,0,1,.938-1.59A1.475,1.475,0,0,1,204.247,521.446Z" transform="translate(-196.618 -513.948)" fill="#fff"/>
      <path id="Path_203" data-name="Path 203" d="M206.948,502.012c-.055.091-.156.093-.241.117a11.915,11.915,0,0,0-2.287.92c-.062.032-.127.114-.211.032A3.021,3.021,0,0,1,206.424,502a.846.846,0,0,1,.37,0Z" transform="translate(-197.769 -500.694)" fill="#fff"/>
      <path id="Path_204" data-name="Path 204" d="M193.589,516.649c-.083-.052-.019-.107,0-.151a9.885,9.885,0,0,1,1.235-1.845c.1-.108.185-.222.289-.322.023-.022.044-.078.092-.027a6.146,6.146,0,0,1-1.251,1.992A2.131,2.131,0,0,1,193.589,516.649Z" transform="translate(-190.558 -509.076)" fill="#fff"/>
      <path id="Path_205" data-name="Path 205" d="M203.583,522.051c.031.019.056.045.029.079a6.838,6.838,0,0,0-.956,1.576l-.059-.009v-.336A1.648,1.648,0,0,1,203.583,522.051Z" transform="translate(-196.68 -514.357)" fill="#fff"/>
      <path id="Path_206" data-name="Path 206" d="M197.724,532.956a3.619,3.619,0,0,1,.078-1.559A2.449,2.449,0,0,1,197.724,532.956Z" transform="translate(-193.351 -520.712)" fill="#fff"/>
      <path id="Path_207" data-name="Path 207" d="M211.427,502h-.37A.711.711,0,0,1,211.427,502Z" transform="translate(-202.402 -500.686)" fill="#fff"/>
    </g>
  </g>
</svg>
